<svg width="24" height="24" viewBox="0 0 24 24" fill="none" xmlns="http://www.w3.org/2000/svg">
<path fill-rule="evenodd" clip-rule="evenodd" d="M1.25 7C1.25 6.58579 1.58579 6.25 2 6.25H10C10.4142 6.25 10.75 6.58579 10.75 7C10.75 7.41421 10.4142 7.75 10 7.75H2C1.58579 7.75 1.25 7.41421 1.25 7ZM1.25 12C1.25 11.5858 1.58579 11.25 2 11.25H8C8.41421 11.25 8.75 11.5858 8.75 12C8.75 12.4142 8.41421 12.75 8 12.75H2C1.58579 12.75 1.25 12.4142 1.25 12ZM1.25 17C1.25 16.5858 1.58579 16.25 2 16.25H10C10.4142 16.25 10.75 16.5858 10.75 17C10.75 17.4142 10.4142 17.75 10 17.75H2C1.58579 17.75 1.25 17.4142 1.25 17Z" fill="#1C274C"/>
<path fill-rule="evenodd" clip-rule="evenodd" d="M17 17C19.7614 17 22 14.7614 22 12C22 9.23858 19.7614 7 17 7C14.2386 7 12 9.23858 12 12C12 14.7614 14.2386 17 17 17ZM17.75 10C17.75 9.58579 17.4142 9.25 17 9.25C16.5858 9.25 16.25 9.58579 16.25 10V11.8462C16.25 12.0266 16.3151 12.201 16.4332 12.3374L17.4332 13.4912C17.7045 13.8042 18.1782 13.838 18.4912 13.5668C18.8042 13.2955 18.838 12.8218 18.5668 12.5088L17.75 11.5664V10Z" fill="#F4743B"/>
<path d="M16.4332 12.3374L16.6222 12.1736L16.6222 12.1736L16.4332 12.3374ZM17.4332 13.4912L17.6222 13.3275L17.6222 13.3275L17.4332 13.4912ZM18.5668 12.5088L18.3778 12.6725L18.3778 12.6725L18.5668 12.5088ZM17.75 11.5664H17.5V11.6596L17.5611 11.7301L17.75 11.5664ZM2 6C1.44772 6 1 6.44772 1 7H1.5C1.5 6.72386 1.72386 6.5 2 6.5V6ZM10 6H2V6.5H10V6ZM11 7C11 6.44772 10.5523 6 10 6V6.5C10.2761 6.5 10.5 6.72386 10.5 7H11ZM10 8C10.5523 8 11 7.55228 11 7H10.5C10.5 7.27614 10.2761 7.5 10 7.5V8ZM2 8H10V7.5H2V8ZM1 7C1 7.55228 1.44772 8 2 8V7.5C1.72386 7.5 1.5 7.27614 1.5 7H1ZM2 11C1.44772 11 1 11.4477 1 12H1.5C1.5 11.7239 1.72386 11.5 2 11.5V11ZM8 11H2V11.5H8V11ZM9 12C9 11.4477 8.55228 11 8 11V11.5C8.27614 11.5 8.5 11.7239 8.5 12H9ZM8 13C8.55228 13 9 12.5523 9 12H8.5C8.5 12.2761 8.27614 12.5 8 12.5V13ZM2 13H8V12.5H2V13ZM1 12C1 12.5523 1.44772 13 2 13V12.5C1.72386 12.5 1.5 12.2761 1.5 12H1ZM2 16C1.44772 16 1 16.4477 1 17H1.5C1.5 16.7239 1.72386 16.5 2 16.5V16ZM10 16H2V16.5H10V16ZM11 17C11 16.4477 10.5523 16 10 16V16.5C10.2761 16.5 10.5 16.7239 10.5 17H11ZM10 18C10.5523 18 11 17.5523 11 17H10.5C10.5 17.2761 10.2761 17.5 10 17.5V18ZM2 18H10V17.5H2V18ZM1 17C1 17.5523 1.44772 18 2 18V17.5C1.72386 17.5 1.5 17.2761 1.5 17H1ZM21.75 12C21.75 14.6234 19.6234 16.75 17 16.75V17.25C19.8995 17.25 22.25 14.8995 22.25 12H21.75ZM17 7.25C19.6234 7.25 21.75 9.37665 21.75 12H22.25C22.25 9.1005 19.8995 6.75 17 6.75V7.25ZM12.25 12C12.25 9.37665 14.3766 7.25 17 7.25V6.75C14.1005 6.75 11.75 9.1005 11.75 12H12.25ZM17 16.75C14.3766 16.75 12.25 14.6234 12.25 12H11.75C11.75 14.8995 14.1005 17.25 17 17.25V16.75ZM17 9.5C17.2761 9.5 17.5 9.72386 17.5 10H18C18 9.44772 17.5523 9 17 9V9.5ZM16.5 10C16.5 9.72386 16.7239 9.5 17 9.5V9C16.4477 9 16 9.44772 16 10H16.5ZM16.5 11.8462V10H16V11.8462H16.5ZM16.6222 12.1736C16.5434 12.0827 16.5 11.9664 16.5 11.8462H16C16 12.0867 16.0867 12.3193 16.2443 12.5011L16.6222 12.1736ZM17.6222 13.3275L16.6222 12.1736L16.2443 12.5011L17.2443 13.6549L17.6222 13.3275ZM18.3275 13.3778C18.1188 13.5587 17.803 13.5361 17.6222 13.3275L17.2443 13.6549C17.606 14.0723 18.2376 14.1174 18.6549 13.7557L18.3275 13.3778ZM18.3778 12.6725C18.5587 12.8812 18.5361 13.197 18.3275 13.3778L18.6549 13.7557C19.0723 13.394 19.1174 12.7624 18.7557 12.3451L18.3778 12.6725ZM17.5611 11.7301L18.3778 12.6725L18.7557 12.3451L17.9389 11.4026L17.5611 11.7301ZM17.5 10V11.5664H18V10H17.5Z" fill="black"/>
</svg>
