<svg width="24" height="24" viewBox="0 0 24 24" fill="none" xmlns="http://www.w3.org/2000/svg">
<path fill-rule="evenodd" clip-rule="evenodd" d="M13.6288 20.4718L13.0867 21.3877C12.6035 22.204 11.3965 22.204 10.9133 21.3877L10.3712 20.4718C9.95073 19.7614 9.74049 19.4063 9.40279 19.2098C9.06509 19.0134 8.63992 19.0061 7.78958 18.9915C6.53422 18.9698 5.74689 18.8929 5.08658 18.6194C3.86144 18.1119 2.88807 17.1386 2.3806 15.9134C2 14.9946 2 13.8297 2 11.5V10.5C2 7.22657 2 5.58985 2.7368 4.38751C3.14908 3.71473 3.71473 3.14908 4.38751 2.7368C5.58985 2 7.22657 2 10.5 2H13.5C16.7734 2 18.4101 2 19.6125 2.7368C20.2853 3.14908 20.8509 3.71473 21.2632 4.38751C22 5.58985 22 7.22657 22 10.5V11.5C22 13.8297 22 14.9946 21.6194 15.9134C21.1119 17.1386 20.1386 18.1119 18.9134 18.6194C18.2531 18.8929 17.4658 18.9698 16.2104 18.9915C15.36 19.0061 14.9349 19.0134 14.5972 19.2098C14.2595 19.4062 14.0492 19.7614 13.6288 20.4718ZM8 11.75C7.58579 11.75 7.25 12.0858 7.25 12.5C7.25 12.9142 7.58579 13.25 8 13.25H13.5C13.9142 13.25 14.25 12.9142 14.25 12.5C14.25 12.0858 13.9142 11.75 13.5 11.75H8ZM7.25 9C7.25 8.58579 7.58579 8.25 8 8.25H16C16.4142 8.25 16.75 8.58579 16.75 9C16.75 9.41421 16.4142 9.75 16 9.75H8C7.58579 9.75 7.25 9.41421 7.25 9Z" fill="#F4743B"/>
<path d="M13.0867 21.3877L13.3018 21.515L13.3018 21.515L13.0867 21.3877ZM13.6288 20.4718L13.4136 20.3445L13.4136 20.3445L13.6288 20.4718ZM10.3712 20.4718L10.1561 20.5992L10.1561 20.5992L10.3712 20.4718ZM10.9133 21.3877L11.1284 21.2604L11.1284 21.2604L10.9133 21.3877ZM2.3806 15.9134L2.61157 15.8177L2.61157 15.8177L2.3806 15.9134ZM7.78958 18.9915L7.78527 19.2414L7.78527 19.2414L7.78958 18.9915ZM5.08658 18.6194L4.99091 18.8504L4.99091 18.8504L5.08658 18.6194ZM21.6194 15.9134L21.8504 16.0091L21.8504 16.0091L21.6194 15.9134ZM16.2104 18.9915L16.2061 18.7415L16.2061 18.7415L16.2104 18.9915ZM18.9134 18.6194L19.0091 18.8504L19.0091 18.8504L18.9134 18.6194ZM19.6125 2.7368L19.4819 2.94996L19.4819 2.94996L19.6125 2.7368ZM21.2632 4.38751L21.4764 4.25688L21.4764 4.25688L21.2632 4.38751ZM4.38751 2.7368L4.25688 2.52364L4.25688 2.52364L4.38751 2.7368ZM2.7368 4.38751L2.52364 4.25688L2.52364 4.25688L2.7368 4.38751ZM9.40279 19.2098L9.52848 18.9937L9.52848 18.9937L9.40279 19.2098ZM13.3018 21.515L13.8439 20.5992L13.4136 20.3445L12.8715 21.2604L13.3018 21.515ZM10.1561 20.5992L10.6982 21.515L11.1284 21.2604L10.5863 20.3445L10.1561 20.5992ZM12.8715 21.2604C12.4852 21.9131 11.5148 21.9131 11.1284 21.2604L10.6982 21.515C11.2781 22.4949 12.7218 22.4949 13.3018 21.515L12.8715 21.2604ZM10.5 2.25H13.5V1.75H10.5V2.25ZM21.75 10.5V11.5H22.25V10.5H21.75ZM2.25 11.5V10.5H1.75V11.5H2.25ZM1.75 11.5C1.75 12.6614 1.74986 13.545 1.79816 14.2528C1.8466 14.9628 1.94461 15.5141 2.14963 16.0091L2.61157 15.8177C2.43599 15.3939 2.3437 14.9033 2.297 14.2188C2.25014 13.532 2.25 12.6683 2.25 11.5H1.75ZM7.79389 18.7415C6.5385 18.7199 5.79434 18.642 5.18225 18.3884L4.99091 18.8504C5.69944 19.1438 6.52994 19.2198 7.78527 19.2414L7.79389 18.7415ZM2.14963 16.0091C2.68248 17.2955 3.70451 18.3175 4.99091 18.8504L5.18225 18.3884C4.01837 17.9063 3.09367 16.9816 2.61157 15.8177L2.14963 16.0091ZM21.75 11.5C21.75 12.6683 21.7499 13.532 21.703 14.2188C21.6563 14.9033 21.564 15.3939 21.3884 15.8177L21.8504 16.0091C22.0554 15.5141 22.1534 14.9628 22.2018 14.2528C22.2501 13.545 22.25 12.6614 22.25 11.5H21.75ZM16.2147 19.2414C17.47 19.2198 18.3006 19.1439 19.0091 18.8504L18.8177 18.3884C18.2057 18.642 17.4615 18.7199 16.2061 18.7415L16.2147 19.2414ZM21.3884 15.8177C20.9063 16.9816 19.9816 17.9063 18.8177 18.3884L19.0091 18.8504C20.2955 18.3175 21.3175 17.2955 21.8504 16.0091L21.3884 15.8177ZM13.5 2.25C15.1416 2.25 16.3552 2.25026 17.3092 2.34098C18.2596 2.43134 18.9266 2.60968 19.4819 2.94996L19.7431 2.52364C19.0961 2.12712 18.3435 1.93706 17.3566 1.84322C16.3733 1.74974 15.1319 1.75 13.5 1.75V2.25ZM22.25 10.5C22.25 8.86813 22.2503 7.62666 22.1568 6.64343C22.0629 5.65648 21.8729 4.90394 21.4764 4.25688L21.05 4.51813C21.3903 5.07342 21.5687 5.74041 21.659 6.69076C21.7497 7.64483 21.75 8.85844 21.75 10.5H22.25ZM19.4819 2.94996C20.121 3.34162 20.6584 3.87899 21.05 4.51813L21.4764 4.25688C21.0435 3.55047 20.4495 2.95653 19.7431 2.52364L19.4819 2.94996ZM10.5 1.75C8.86813 1.75 7.62666 1.74974 6.64343 1.84322C5.65648 1.93706 4.90394 2.12712 4.25688 2.52364L4.51813 2.94996C5.07342 2.60968 5.74041 2.43134 6.69076 2.34098C7.64483 2.25026 8.85844 2.25 10.5 2.25V1.75ZM2.25 10.5C2.25 8.85844 2.25026 7.64483 2.34098 6.69076C2.43134 5.74041 2.60968 5.07342 2.94996 4.51813L2.52364 4.25688C2.12712 4.90394 1.93706 5.65648 1.84322 6.64343C1.74974 7.62666 1.75 8.86813 1.75 10.5H2.25ZM4.25688 2.52364C3.55047 2.95653 2.95653 3.55047 2.52364 4.25688L2.94996 4.51813C3.34162 3.87899 3.87899 3.34162 4.51813 2.94996L4.25688 2.52364ZM10.5863 20.3445C10.3785 19.9934 10.214 19.7149 10.058 19.5008C9.89893 19.2826 9.73781 19.1155 9.52848 18.9937L9.2771 19.4259C9.40547 19.5006 9.51832 19.6093 9.65392 19.7953C9.7926 19.9856 9.94343 20.2399 10.1561 20.5992L10.5863 20.3445ZM7.78527 19.2414C8.21508 19.2488 8.52038 19.2543 8.76091 19.281C8.99681 19.3071 9.14956 19.3518 9.2771 19.4259L9.52848 18.9937C9.31833 18.8715 9.08964 18.8143 8.81594 18.784C8.54688 18.7542 8.21442 18.7487 7.79389 18.7415L7.78527 19.2414ZM13.8439 20.5992C14.0565 20.2399 14.2074 19.9856 14.346 19.7953C14.4816 19.6093 14.5945 19.5006 14.7229 19.4259L14.4715 18.9937C14.2621 19.1155 14.101 19.2826 13.942 19.5008C13.786 19.7149 13.6215 19.9934 13.4136 20.3445L13.8439 20.5992ZM16.2061 18.7415C15.7855 18.7487 15.4531 18.7542 15.184 18.784C14.9103 18.8143 14.6816 18.8715 14.4715 18.9937L14.7229 19.4259C14.8504 19.3518 15.0031 19.3071 15.239 19.281C15.4796 19.2543 15.7849 19.2488 16.2147 19.2414L16.2061 18.7415ZM8 8C7.44772 8 7 8.44772 7 9H7.5C7.5 8.72386 7.72386 8.5 8 8.5V8ZM16 8H8V8.5H16V8ZM17 9C17 8.44772 16.5523 8 16 8V8.5C16.2761 8.5 16.5 8.72386 16.5 9H17ZM16 10C16.5523 10 17 9.55228 17 9H16.5C16.5 9.27614 16.2761 9.5 16 9.5V10ZM8 10H16V9.5H8V10ZM7 9C7 9.55228 7.44772 10 8 10V9.5C7.72386 9.5 7.5 9.27614 7.5 9H7ZM8 11.5C7.44772 11.5 7 11.9477 7 12.5H7.5C7.5 12.2239 7.72386 12 8 12V11.5ZM13.5 11.5H8V12H13.5V11.5ZM14.5 12.5C14.5 11.9477 14.0523 11.5 13.5 11.5V12C13.7761 12 14 12.2239 14 12.5H14.5ZM13.5 13.5C14.0523 13.5 14.5 13.0523 14.5 12.5H14C14 12.7761 13.7761 13 13.5 13V13.5ZM8 13.5H13.5V13H8V13.5ZM7 12.5C7 13.0523 7.44772 13.5 8 13.5V13C7.72386 13 7.5 12.7761 7.5 12.5H7Z" fill="black"/>
</svg>
