<svg width="24" height="24" viewBox="0 0 24 24" fill="none" xmlns="http://www.w3.org/2000/svg">
<path fill-rule="evenodd" clip-rule="evenodd" d="M13.0867 21.3877L13.6288 20.4718C14.0492 19.7614 14.2595 19.4062 14.5972 19.2098C14.9349 19.0134 15.36 19.0061 16.2104 18.9915C17.4658 18.9698 18.2531 18.8929 18.9134 18.6194C20.1386 18.1119 21.1119 17.1386 21.6194 15.9134C22 14.9946 22 13.8297 22 11.5V10.5C22 7.22657 22 5.58985 21.2632 4.38751C20.8509 3.71473 20.2853 3.14908 19.6125 2.7368C18.4101 2 16.7734 2 13.5 2H10.5C7.22657 2 5.58985 2 4.38751 2.7368C3.71473 3.14908 3.14908 3.71473 2.7368 4.38751C2 5.58985 2 7.22657 2 10.5V11.5C2 13.8297 2 14.9946 2.3806 15.9134C2.88807 17.1386 3.86144 18.1119 5.08658 18.6194C5.74689 18.8929 6.53422 18.9698 7.78958 18.9915C8.63992 19.0061 9.06509 19.0134 9.40279 19.2098C9.74049 19.4063 9.95073 19.7614 10.3712 20.4718L10.9133 21.3877C11.3965 22.204 12.6035 22.204 13.0867 21.3877ZM12.75 9C12.75 8.58579 12.4142 8.25 12 8.25C11.5858 8.25 11.25 8.58579 11.25 9V10.25H10C9.58579 10.25 9.25 10.5858 9.25 11C9.25 11.4142 9.58579 11.75 10 11.75H11.25V13C11.25 13.4142 11.5858 13.75 12 13.75C12.4142 13.75 12.75 13.4142 12.75 13V11.75H14C14.4142 11.75 14.75 11.4142 14.75 11C14.75 10.5858 14.4142 10.25 14 10.25H12.75V9Z" fill="#F4743B" stroke="black" stroke-width="0.5" stroke-linecap="round"/>
</svg>
