<svg width="24" height="24" viewBox="0 0 24 24" fill="none" xmlns="http://www.w3.org/2000/svg">
<path fill-rule="evenodd" clip-rule="evenodd" d="M12 22C7.28595 22 4.92893 22 3.46447 20.5355C2 19.0711 2 16.714 2 12C2 7.28595 2 4.92893 3.46447 3.46447C4.92893 2 7.28595 2 12 2C16.714 2 19.0711 2 20.5355 3.46447C22 4.92893 22 7.28595 22 12C22 16.714 22 19.0711 20.5355 20.5355C19.0711 22 16.714 22 12 22ZM8.96965 8.96967C9.26254 8.67678 9.73742 8.67678 10.0303 8.96967L12 10.9394L13.9696 8.96969C14.2625 8.6768 14.7374 8.6768 15.0303 8.96969C15.3232 9.26258 15.3232 9.73746 15.0303 10.0303L13.0606 12L15.0303 13.9697C15.3232 14.2625 15.3232 14.7374 15.0303 15.0303C14.7374 15.3232 14.2625 15.3232 13.9696 15.0303L12 13.0607L10.0303 15.0303C9.73744 15.3232 9.26256 15.3232 8.96967 15.0303C8.67678 14.7374 8.67678 14.2626 8.96967 13.9697L10.9393 12L8.96965 10.0303C8.67676 9.73744 8.67676 9.26256 8.96965 8.96967Z" fill="#F4743B"/>
<path d="M10.0303 8.96967L9.85353 9.14645L9.85353 9.14645L10.0303 8.96967ZM8.96965 8.96967L8.79287 8.79289L8.79287 8.79289L8.96965 8.96967ZM12 10.9394L11.8232 11.1161L12 11.2929L12.1768 11.1161L12 10.9394ZM13.9696 8.96969L13.7929 8.79291L13.7929 8.79291L13.9696 8.96969ZM15.0303 8.96969L15.2071 8.79291L15.2071 8.79291L15.0303 8.96969ZM15.0303 10.0303L15.2071 10.2071L15.2071 10.2071L15.0303 10.0303ZM13.0606 12L12.8839 11.8232L12.7071 12L12.8839 12.1768L13.0606 12ZM15.0303 13.9697L15.2071 13.7929L15.2071 13.7929L15.0303 13.9697ZM15.0303 15.0303L15.2071 15.2071L15.2071 15.2071L15.0303 15.0303ZM13.9696 15.0303L13.7929 15.2071L13.7929 15.2071L13.9696 15.0303ZM12 13.0607L12.1768 12.8839L12 12.7071L11.8232 12.8839L12 13.0607ZM10.0303 15.0303L10.2071 15.2071L10.2071 15.2071L10.0303 15.0303ZM8.96967 15.0303L8.79289 15.2071L8.79289 15.2071L8.96967 15.0303ZM8.96967 13.9697L8.79289 13.7929L8.79289 13.7929L8.96967 13.9697ZM10.9393 12L11.1161 12.1768L11.2929 12L11.1161 11.8232L10.9393 12ZM8.96965 10.0303L8.79287 10.2071L8.79287 10.2071L8.96965 10.0303ZM12 21.75C9.63591 21.75 7.88799 21.7495 6.54695 21.5692C5.21311 21.3898 4.31928 21.0368 3.64124 20.3588L3.28769 20.7123C4.07411 21.4987 5.09104 21.8779 6.48033 22.0647C7.86243 22.2505 9.65004 22.25 12 22.25V21.75ZM1.75 12C1.75 14.35 1.74947 16.1376 1.93529 17.5197C2.12207 18.909 2.50126 19.9259 3.28769 20.7123L3.64124 20.3588C2.9632 19.6807 2.61016 18.7869 2.43083 17.453C2.25053 16.112 2.25 14.3641 2.25 12H1.75ZM21.75 12C21.75 14.3641 21.7495 16.112 21.5692 17.453C21.3898 18.7869 21.0368 19.6807 20.3588 20.3588L20.7123 20.7123C21.4987 19.9259 21.8779 18.909 22.0647 17.5197C22.2505 16.1376 22.25 14.35 22.25 12H21.75ZM12 22.25C14.35 22.25 16.1376 22.2505 17.5197 22.0647C18.909 21.8779 19.9259 21.4987 20.7123 20.7123L20.3588 20.3588C19.6807 21.0368 18.7869 21.3898 17.453 21.5692C16.112 21.7495 14.3641 21.75 12 21.75V22.25ZM12 2.25C14.3641 2.25 16.112 2.25053 17.453 2.43083C18.7869 2.61016 19.6807 2.9632 20.3588 3.64124L20.7123 3.28769C19.9259 2.50126 18.909 2.12207 17.5197 1.93529C16.1376 1.74947 14.35 1.75 12 1.75V2.25ZM22.25 12C22.25 9.65004 22.2505 7.86243 22.0647 6.48033C21.8779 5.09104 21.4987 4.07411 20.7123 3.28769L20.3588 3.64124C21.0368 4.31928 21.3898 5.21311 21.5692 6.54695C21.7495 7.88799 21.75 9.63591 21.75 12H22.25ZM12 1.75C9.65004 1.75 7.86243 1.74947 6.48033 1.93529C5.09104 2.12207 4.07411 2.50126 3.28769 3.28769L3.64124 3.64124C4.31928 2.9632 5.21311 2.61016 6.54695 2.43083C7.88799 2.25053 9.63591 2.25 12 2.25V1.75ZM2.25 12C2.25 9.63591 2.25053 7.88799 2.43083 6.54695C2.61016 5.21311 2.9632 4.31928 3.64124 3.64124L3.28769 3.28769C2.50126 4.07411 2.12207 5.09104 1.93529 6.48033C1.74947 7.86243 1.75 9.65004 1.75 12H2.25ZM10.2071 8.79289C9.81656 8.40237 9.1834 8.40237 8.79287 8.79289L9.14643 9.14645C9.34169 8.95118 9.65827 8.95118 9.85353 9.14645L10.2071 8.79289ZM12.1768 10.7626L10.2071 8.79289L9.85353 9.14645L11.8232 11.1161L12.1768 10.7626ZM13.7929 8.79291L11.8232 10.7626L12.1768 11.1161L14.1464 9.14647L13.7929 8.79291ZM15.2071 8.79291C14.8166 8.40239 14.1834 8.40239 13.7929 8.79291L14.1464 9.14647C14.3417 8.9512 14.6583 8.9512 14.8535 9.14647L15.2071 8.79291ZM15.2071 10.2071C15.5976 9.8166 15.5976 9.18344 15.2071 8.79291L14.8535 9.14647C15.0488 9.34173 15.0488 9.65831 14.8535 9.85357L15.2071 10.2071ZM13.2374 12.1768L15.2071 10.2071L14.8535 9.85357L12.8839 11.8232L13.2374 12.1768ZM15.2071 13.7929L13.2374 11.8232L12.8839 12.1768L14.8535 14.1464L15.2071 13.7929ZM15.2071 15.2071C15.5976 14.8166 15.5976 14.1834 15.2071 13.7929L14.8535 14.1464C15.0488 14.3417 15.0488 14.6583 14.8535 14.8535L15.2071 15.2071ZM13.7929 15.2071C14.1834 15.5976 14.8165 15.5976 15.2071 15.2071L14.8535 14.8535C14.6582 15.0488 14.3417 15.0488 14.1464 14.8535L13.7929 15.2071ZM11.8232 13.2374L13.7929 15.2071L14.1464 14.8535L12.1768 12.8839L11.8232 13.2374ZM10.2071 15.2071L12.1768 13.2374L11.8232 12.8839L9.85355 14.8536L10.2071 15.2071ZM8.79289 15.2071C9.18342 15.5976 9.81658 15.5976 10.2071 15.2071L9.85355 14.8536C9.65829 15.0488 9.34171 15.0488 9.14645 14.8536L8.79289 15.2071ZM8.79289 13.7929C8.40237 14.1834 8.40237 14.8166 8.79289 15.2071L9.14645 14.8536C8.95118 14.6583 8.95118 14.3417 9.14645 14.1464L8.79289 13.7929ZM10.7626 11.8232L8.79289 13.7929L9.14645 14.1464L11.1161 12.1768L10.7626 11.8232ZM8.79287 10.2071L10.7626 12.1768L11.1161 11.8232L9.14643 9.85355L8.79287 10.2071ZM8.79287 8.79289C8.40235 9.18342 8.40235 9.81658 8.79287 10.2071L9.14643 9.85355C8.95116 9.65829 8.95116 9.34171 9.14643 9.14645L8.79287 8.79289Z" fill="black"/>
</svg>
