<svg width="24" height="24" viewBox="0 0 24 24" fill="none" xmlns="http://www.w3.org/2000/svg">
<path fill-rule="evenodd" clip-rule="evenodd" d="M16.7628 3.28847C17.0691 3.18639 17.4063 3.29173 17.6 3.54999L20.6 7.54999C20.8485 7.88136 20.7814 8.35146 20.45 8.59999C20.1186 8.84852 19.6485 8.78136 19.4 8.44999L17.75 6.24999V20C17.75 20.4142 17.4142 20.75 17 20.75C16.5858 20.75 16.25 20.4142 16.25 20V3.99999C16.25 3.67716 16.4566 3.39056 16.7628 3.28847ZM3.25 7.99999C3.25 7.58577 3.58579 7.24999 4 7.24999H13C13.4142 7.24999 13.75 7.58577 13.75 7.99999C13.75 8.4142 13.4142 8.74999 13 8.74999H4C3.58579 8.74999 3.25 8.4142 3.25 7.99999ZM5.25 13C5.25 12.5858 5.58579 12.25 6 12.25H13C13.4142 12.25 13.75 12.5858 13.75 13C13.75 13.4142 13.4142 13.75 13 13.75H6C5.58579 13.75 5.25 13.4142 5.25 13ZM7.25 18C7.25 17.5858 7.58579 17.25 8 17.25H13C13.4142 17.25 13.75 17.5858 13.75 18C13.75 18.4142 13.4142 18.75 13 18.75H8C7.58579 18.75 7.25 18.4142 7.25 18Z" fill="#F4743B" stroke="black" stroke-width="0.5" stroke-linecap="round"/>
</svg>
