<svg width="24" height="24" viewBox="0 0 24 24" fill="none" xmlns="http://www.w3.org/2000/svg">
<path fill-rule="evenodd" clip-rule="evenodd" d="M12 1.25C11.5858 1.25 11.25 1.58579 11.25 2V12.9726L9.56944 11.0119C9.29988 10.6974 8.8264 10.661 8.51191 10.9306C8.19741 11.2001 8.16099 11.6736 8.43056 11.9881L11.4306 15.4881C11.573 15.6543 11.7811 15.75 12 15.75C12.2189 15.75 12.427 15.6543 12.5694 15.4881L15.5694 11.9881C15.839 11.6736 15.8026 11.2001 15.4881 10.9306C15.1736 10.661 14.7001 10.6974 14.4306 11.0119L12.75 12.9726L12.75 2C12.75 1.58579 12.4142 1.25 12 1.25Z" fill="#F4743B"/>
<path d="M14.25 9V9.37828C14.9836 9.11973 15.8312 9.2491 16.4642 9.79167C17.4077 10.6004 17.517 12.0208 16.7083 12.9643L13.7083 16.4643C13.2808 16.963 12.6568 17.25 12 17.25C11.3431 17.25 10.7191 16.963 10.2916 16.4643L7.29163 12.9643C6.48293 12.0208 6.5922 10.6004 7.53568 9.79167C8.16868 9.2491 9.01637 9.11973 9.74996 9.37828V9H8C5.17157 9 3.75736 9 2.87868 9.87868C2 10.7574 2 12.1716 2 15V16C2 18.8284 2 20.2426 2.87868 21.1213C3.75736 22 5.17157 22 7.99999 22H16C18.8284 22 20.2426 22 21.1213 21.1213C22 20.2426 22 18.8284 22 16V15C22 12.1716 22 10.7574 21.1213 9.87868C20.2426 9 18.8284 9 16 9H14.25Z" fill="#F4743B"/>
<path d="M11.25 12.9726L11.0602 13.1353L11.5 13.6484V12.9726H11.25ZM9.56944 11.0119L9.75926 10.8492L9.75926 10.8492L9.56944 11.0119ZM8.51191 10.9306L8.6746 11.1204L8.6746 11.1204L8.51191 10.9306ZM8.43056 11.9881L8.62037 11.8254L8.62037 11.8254L8.43056 11.9881ZM11.4306 15.4881L11.6204 15.3254L11.6204 15.3254L11.4306 15.4881ZM12.5694 15.4881L12.3796 15.3254L12.3796 15.3254L12.5694 15.4881ZM15.5694 11.9881L15.3796 11.8254L15.3796 11.8254L15.5694 11.9881ZM15.4881 10.9306L15.6508 10.7407L15.6508 10.7407L15.4881 10.9306ZM14.4306 11.0119L14.2407 10.8492L14.2407 10.8492L14.4306 11.0119ZM12.75 12.9726L12.5 12.9726L12.5 13.6484L12.9398 13.1353L12.75 12.9726ZM12.75 2L13 2V2H12.75ZM14.25 9.37828H14V9.73146L14.3331 9.61406L14.25 9.37828ZM14.25 9V8.75H14V9H14.25ZM16.4642 9.79167L16.6269 9.60186L16.6269 9.60186L16.4642 9.79167ZM16.7083 12.9643L16.5185 12.8016L16.5185 12.8016L16.7083 12.9643ZM13.7083 16.4643L13.5185 16.3016L13.5185 16.3016L13.7083 16.4643ZM10.2916 16.4643L10.4814 16.3016L10.4814 16.3016L10.2916 16.4643ZM7.29163 12.9643L7.48145 12.8016L7.48145 12.8016L7.29163 12.9643ZM7.53568 9.79167L7.69838 9.98149L7.69838 9.98149L7.53568 9.79167ZM9.74996 9.37828L9.66686 9.61406L9.99996 9.73146V9.37828H9.74996ZM9.74996 9H9.99996V8.75H9.74996V9ZM2.87868 9.87868L2.7019 9.7019L2.7019 9.7019L2.87868 9.87868ZM2.87868 21.1213L2.7019 21.2981L2.7019 21.2981L2.87868 21.1213ZM21.1213 9.87868L21.2981 9.7019L21.2981 9.7019L21.1213 9.87868ZM11.5 2C11.5 1.72386 11.7239 1.5 12 1.5V1C11.4477 1 11 1.44772 11 2H11.5ZM11.5 12.9726V2H11V12.9726H11.5ZM9.37963 11.1746L11.0602 13.1353L11.4398 12.8099L9.75926 10.8492L9.37963 11.1746ZM8.6746 11.1204C8.88427 10.9407 9.19992 10.9649 9.37963 11.1746L9.75926 10.8492C9.39983 10.4299 8.76853 10.3813 8.34921 10.7407L8.6746 11.1204ZM8.62037 11.8254C8.44066 11.6157 8.46494 11.3001 8.6746 11.1204L8.34921 10.7407C7.92988 11.1002 7.88132 11.7315 8.24074 12.1508L8.62037 11.8254ZM11.6204 15.3254L8.62037 11.8254L8.24074 12.1508L11.2407 15.6508L11.6204 15.3254ZM12 15.5C11.854 15.5 11.7154 15.4362 11.6204 15.3254L11.2407 15.6508C11.4307 15.8724 11.7081 16 12 16V15.5ZM12.3796 15.3254C12.2846 15.4362 12.146 15.5 12 15.5V16C12.2919 16 12.5693 15.8724 12.7593 15.6508L12.3796 15.3254ZM15.3796 11.8254L12.3796 15.3254L12.7593 15.6508L15.7593 12.1508L15.3796 11.8254ZM15.3254 11.1204C15.5351 11.3001 15.5593 11.6157 15.3796 11.8254L15.7593 12.1508C16.1187 11.7315 16.0701 11.1002 15.6508 10.7407L15.3254 11.1204ZM14.6204 11.1746C14.8001 10.9649 15.1157 10.9407 15.3254 11.1204L15.6508 10.7407C15.2315 10.3813 14.6002 10.4299 14.2407 10.8492L14.6204 11.1746ZM12.9398 13.1353L14.6204 11.1746L14.2407 10.8492L12.5602 12.8099L12.9398 13.1353ZM12.5 2L12.5 12.9726L13 12.9726L13 2L12.5 2ZM12 1.5C12.2761 1.5 12.5 1.72386 12.5 2H13C13 1.44772 12.5523 1 12 1V1.5ZM14.5 9.37828V9H14V9.37828H14.5ZM16.6269 9.60186C15.9234 8.99879 14.9813 8.85547 14.1669 9.14249L14.3331 9.61406C14.9859 9.384 15.7391 9.49941 16.3015 9.98149L16.6269 9.60186ZM16.8981 13.127C17.7967 12.0787 17.6753 10.5004 16.6269 9.60186L16.3015 9.98149C17.1402 10.7003 17.2373 11.9629 16.5185 12.8016L16.8981 13.127ZM13.8981 16.627L16.8981 13.127L16.5185 12.8016L13.5185 16.3016L13.8981 16.627ZM12 17.5C12.7298 17.5 13.4231 17.1811 13.8981 16.627L13.5185 16.3016C13.1385 16.7449 12.5838 17 12 17V17.5ZM10.1018 16.627C10.5768 17.1811 11.2701 17.5 12 17.5V17C11.4161 17 10.8614 16.7449 10.4814 16.3016L10.1018 16.627ZM7.10182 13.127L10.1018 16.627L10.4814 16.3016L7.48145 12.8016L7.10182 13.127ZM7.37298 9.60186C6.32467 10.5004 6.20326 12.0787 7.10182 13.127L7.48145 12.8016C6.7626 11.9629 6.85972 10.7003 7.69838 9.98149L7.37298 9.60186ZM9.83306 9.14249C9.01866 8.85547 8.07655 8.99879 7.37298 9.60186L7.69838 9.98149C8.2608 9.49941 9.01407 9.384 9.66686 9.61406L9.83306 9.14249ZM9.49996 9V9.37828H9.99996V9H9.49996ZM9.74996 8.75H8V9.25H9.74996V8.75ZM8 8.75C6.59285 8.75 5.51234 8.74947 4.67487 8.86206C3.83021 8.97563 3.19543 9.20837 2.7019 9.7019L3.05546 10.0555C3.4406 9.67031 3.95228 9.46371 4.7415 9.35761C5.53791 9.25053 6.57872 9.25 8 9.25V8.75ZM2.7019 9.7019C2.20837 10.1954 1.97563 10.8302 1.86206 11.6749C1.74947 12.5123 1.75 13.5929 1.75 15H2.25C2.25 13.5787 2.25053 12.5379 2.35761 11.7415C2.46371 10.9523 2.67031 10.4406 3.05546 10.0555L2.7019 9.7019ZM1.75 15V16H2.25V15H1.75ZM1.75 16C1.75 17.4072 1.74947 18.4877 1.86206 19.3251C1.97563 20.1698 2.20837 20.8046 2.7019 21.2981L3.05546 20.9445C2.67031 20.5594 2.46371 20.0477 2.35761 19.2585C2.25053 18.4621 2.25 17.4213 2.25 16H1.75ZM2.7019 21.2981C3.19543 21.7916 3.83021 22.0244 4.67487 22.1379C5.51234 22.2505 6.59285 22.25 7.99999 22.25V21.75C6.57871 21.75 5.5379 21.7495 4.74149 21.6424C3.95228 21.5363 3.4406 21.3297 3.05546 20.9445L2.7019 21.2981ZM7.99999 22.25H16V21.75H7.99999V22.25ZM16 22.25C17.4071 22.25 18.4877 22.2505 19.3251 22.1379C20.1698 22.0244 20.8046 21.7916 21.2981 21.2981L20.9445 20.9445C20.5594 21.3297 20.0477 21.5363 19.2585 21.6424C18.4621 21.7495 17.4213 21.75 16 21.75V22.25ZM21.2981 21.2981C21.7916 20.8046 22.0244 20.1698 22.1379 19.3251C22.2505 18.4877 22.25 17.4072 22.25 16H21.75C21.75 17.4213 21.7495 18.4621 21.6424 19.2585C21.5363 20.0477 21.3297 20.5594 20.9445 20.9445L21.2981 21.2981ZM22.25 16V15H21.75V16H22.25ZM22.25 15C22.25 13.5929 22.2505 12.5123 22.1379 11.6749C22.0244 10.8302 21.7916 10.1954 21.2981 9.7019L20.9445 10.0555C21.3297 10.4406 21.5363 10.9523 21.6424 11.7415C21.7495 12.5379 21.75 13.5787 21.75 15H22.25ZM21.2981 9.7019C20.8046 9.20837 20.1698 8.97563 19.3251 8.86206C18.4877 8.74947 17.4071 8.75 16 8.75V9.25C17.4213 9.25 18.4621 9.25053 19.2585 9.35761C20.0477 9.46371 20.5594 9.67031 20.9445 10.0555L21.2981 9.7019ZM16 8.75H14.25V9.25H16V8.75Z" fill="black"/>
</svg>
