<svg width="24" height="24" viewBox="0 0 24 24" fill="none" xmlns="http://www.w3.org/2000/svg">
<path fill-rule="evenodd" clip-rule="evenodd" d="M3.46447 3.46447C2 4.92893 2 7.28595 2 12C2 16.714 2 19.0711 3.46447 20.5355C4.92893 22 7.28595 22 12 22C16.714 22 19.0711 22 20.5355 20.5355C22 19.0711 22 16.714 22 12C22 7.28595 22 4.92893 20.5355 3.46447C19.0711 2 16.714 2 12 2C7.28595 2 4.92893 2 3.46447 3.46447ZM12 7.25C12.4142 7.25 12.75 7.58579 12.75 8V14.1893L14.4697 12.4697C14.7626 12.1768 15.2374 12.1768 15.5303 12.4697C15.8232 12.7626 15.8232 13.2374 15.5303 13.5303L12.5303 16.5303C12.3897 16.671 12.1989 16.75 12 16.75C11.8011 16.75 11.6103 16.671 11.4697 16.5303L8.46967 13.5303C8.17678 13.2374 8.17678 12.7626 8.46967 12.4697C8.76256 12.1768 9.23744 12.1768 9.53033 12.4697L11.25 14.1893V8C11.25 7.58579 11.5858 7.25 12 7.25Z" fill="#F4743B"/>
<path d="M12.75 14.1893H12.5V14.7929L12.9268 14.3661L12.75 14.1893ZM14.4697 12.4697L14.2929 12.2929L14.2929 12.2929L14.4697 12.4697ZM15.5303 12.4697L15.7071 12.2929L15.7071 12.2929L15.5303 12.4697ZM15.5303 13.5303L15.7071 13.7071L15.7071 13.7071L15.5303 13.5303ZM12.5303 16.5303L12.3536 16.3536L12.3536 16.3536L12.5303 16.5303ZM11.4697 16.5303L11.6464 16.3536L11.6464 16.3536L11.4697 16.5303ZM8.46967 13.5303L8.29289 13.7071L8.29289 13.7071L8.46967 13.5303ZM8.46967 12.4697L8.29289 12.2929L8.29289 12.2929L8.46967 12.4697ZM9.53033 12.4697L9.70711 12.2929L9.70711 12.2929L9.53033 12.4697ZM11.25 14.1893L11.0732 14.3661L11.5 14.7929V14.1893H11.25ZM12 21.75C9.63591 21.75 7.88799 21.7495 6.54695 21.5692C5.21311 21.3898 4.31928 21.0368 3.64124 20.3588L3.28769 20.7123C4.07411 21.4987 5.09104 21.8779 6.48033 22.0647C7.86243 22.2505 9.65004 22.25 12 22.25V21.75ZM1.75 12C1.75 14.35 1.74947 16.1376 1.93529 17.5197C2.12207 18.909 2.50126 19.9259 3.28769 20.7123L3.64124 20.3588C2.9632 19.6807 2.61016 18.7869 2.43083 17.453C2.25053 16.112 2.25 14.3641 2.25 12H1.75ZM21.75 12C21.75 14.3641 21.7495 16.112 21.5692 17.453C21.3898 18.7869 21.0368 19.6807 20.3588 20.3588L20.7123 20.7123C21.4987 19.9259 21.8779 18.909 22.0647 17.5197C22.2505 16.1376 22.25 14.35 22.25 12H21.75ZM12 22.25C14.35 22.25 16.1376 22.2505 17.5197 22.0647C18.909 21.8779 19.9259 21.4987 20.7123 20.7123L20.3588 20.3588C19.6807 21.0368 18.7869 21.3898 17.453 21.5692C16.112 21.7495 14.3641 21.75 12 21.75V22.25ZM12 2.25C14.3641 2.25 16.112 2.25053 17.453 2.43083C18.7869 2.61016 19.6807 2.9632 20.3588 3.64124L20.7123 3.28769C19.9259 2.50126 18.909 2.12207 17.5197 1.93529C16.1376 1.74947 14.35 1.75 12 1.75V2.25ZM22.25 12C22.25 9.65004 22.2505 7.86243 22.0647 6.48033C21.8779 5.09104 21.4987 4.07411 20.7123 3.28769L20.3588 3.64124C21.0368 4.31928 21.3898 5.21311 21.5692 6.54695C21.7495 7.88799 21.75 9.63591 21.75 12H22.25ZM12 1.75C9.65004 1.75 7.86243 1.74947 6.48033 1.93529C5.09104 2.12207 4.07411 2.50126 3.28769 3.28769L3.64124 3.64124C4.31928 2.9632 5.21311 2.61016 6.54695 2.43083C7.88799 2.25053 9.63591 2.25 12 2.25V1.75ZM2.25 12C2.25 9.63591 2.25053 7.88799 2.43083 6.54695C2.61016 5.21311 2.9632 4.31928 3.64124 3.64124L3.28769 3.28769C2.50126 4.07411 2.12207 5.09104 1.93529 6.48033C1.74947 7.86243 1.75 9.65004 1.75 12H2.25ZM13 8C13 7.44772 12.5523 7 12 7V7.5C12.2761 7.5 12.5 7.72386 12.5 8H13ZM13 14.1893V8H12.5V14.1893H13ZM14.2929 12.2929L12.5732 14.0126L12.9268 14.3661L14.6464 12.6464L14.2929 12.2929ZM15.7071 12.2929C15.3166 11.9024 14.6834 11.9024 14.2929 12.2929L14.6464 12.6464C14.8417 12.4512 15.1583 12.4512 15.3536 12.6464L15.7071 12.2929ZM15.7071 13.7071C16.0976 13.3166 16.0976 12.6834 15.7071 12.2929L15.3536 12.6464C15.5488 12.8417 15.5488 13.1583 15.3536 13.3536L15.7071 13.7071ZM12.7071 16.7071L15.7071 13.7071L15.3536 13.3536L12.3536 16.3536L12.7071 16.7071ZM12 17C12.2652 17 12.5196 16.8946 12.7071 16.7071L12.3536 16.3536C12.2598 16.4473 12.1326 16.5 12 16.5V17ZM11.2929 16.7071C11.4804 16.8946 11.7348 17 12 17V16.5C11.8674 16.5 11.7402 16.4473 11.6464 16.3536L11.2929 16.7071ZM8.29289 13.7071L11.2929 16.7071L11.6464 16.3536L8.64645 13.3536L8.29289 13.7071ZM8.29289 12.2929C7.90237 12.6834 7.90237 13.3166 8.29289 13.7071L8.64645 13.3536C8.45118 13.1583 8.45118 12.8417 8.64645 12.6464L8.29289 12.2929ZM9.70711 12.2929C9.31658 11.9024 8.68342 11.9024 8.29289 12.2929L8.64645 12.6464C8.84171 12.4512 9.15829 12.4512 9.35355 12.6464L9.70711 12.2929ZM11.4268 14.0126L9.70711 12.2929L9.35355 12.6464L11.0732 14.3661L11.4268 14.0126ZM11 8V14.1893H11.5V8H11ZM12 7C11.4477 7 11 7.44772 11 8H11.5C11.5 7.72386 11.7239 7.5 12 7.5V7Z" fill="black"/>
</svg>
