<svg width="24" height="24" viewBox="0 0 24 24" fill="none" xmlns="http://www.w3.org/2000/svg">
<path d="M16.6285 3.12502L16.5321 3.22143L16.561 3.35469C16.5941 3.50779 16.6443 3.69929 16.7198 3.91684C16.9218 4.49909 17.303 5.26253 18.0202 5.97978C18.7375 6.69703 19.5009 7.07822 20.0832 7.28023C20.3007 7.3557 20.4922 7.40588 20.6453 7.43903L20.7786 7.46788L20.875 7.37146L21.3705 6.87592C22.5432 5.70329 22.5432 3.80209 21.3705 2.62947C20.1979 1.45684 18.2967 1.45684 17.1241 2.62947L16.6285 3.12502ZM15.837 4.41505L15.6997 4.05385L15.4265 4.32707L10.5104 9.24315L10.4967 9.25683C10.1056 9.64791 9.89354 9.86001 9.7103 10.0949C9.4942 10.372 9.30893 10.6718 9.15776 10.989C9.02958 11.2579 8.93474 11.5425 8.75985 12.0671L8.75372 12.0855L7.80094 14.9439C7.68208 15.3004 7.77489 15.6936 8.04067 15.9593C8.30644 16.2251 8.69957 16.3179 9.05615 16.1991L11.9145 15.2463L11.9329 15.2402C12.4575 15.0653 12.7421 14.9704 13.011 14.8422C13.3282 14.6911 13.628 14.5058 13.9051 14.2897C14.14 14.1065 14.3521 13.8944 14.7432 13.5033L14.7568 13.4896L19.6729 8.57352L19.9462 8.30029L19.585 8.16305C18.9174 7.90937 18.0907 7.4645 17.3131 6.68689C16.5355 5.90927 16.0906 5.08264 15.837 4.41505ZM9.74847 8.59085L9.74851 8.59081L16.1107 2.22866L16.5103 1.829L15.9458 1.80217C14.8482 1.75 13.5493 1.75 12.0054 1.75H12H11.98C9.63988 1.75 7.8585 1.75 6.48033 1.93529C5.09104 2.12207 4.07411 2.50126 3.28769 3.28769C2.50126 4.07412 2.12207 5.09104 1.93529 6.48033C1.75 7.8585 1.75 9.63988 1.75 11.98V12V12.02C1.75 14.3601 1.75 16.1415 1.93529 17.5197C2.12207 18.909 2.50126 19.9259 3.28769 20.7123C4.07412 21.4987 5.09104 21.8779 6.48033 22.0647C7.8585 22.25 9.6399 22.25 11.98 22.25H12H12.02C14.3601 22.25 16.1415 22.25 17.5197 22.0647C18.909 21.8779 19.9259 21.4987 20.7123 20.7123C21.4987 19.9259 21.8779 18.909 22.0647 17.5197C22.25 16.1415 22.25 14.3601 22.25 12.02V12V11.9946C22.25 10.4507 22.25 9.1518 22.1978 8.05423L22.171 7.48966L21.7713 7.88932L15.4092 14.2515L15.4091 14.2515C15.0553 14.6056 14.8026 14.8579 14.5201 15.0782C14.1858 15.339 13.824 15.5626 13.4413 15.745C13.1178 15.8991 12.7791 16.0123 12.3043 16.1705L12.3042 16.1705L9.37238 17.1477C8.65646 17.3864 7.86716 17.2 7.33356 16.6664C6.79995 16.1328 6.61362 15.3435 6.85226 14.6276L7.82952 11.6958L7.82954 11.6957C7.98771 11.2208 8.10089 10.8822 8.25503 10.5587C8.43745 10.176 8.66102 9.81424 8.92179 9.47991C9.14214 9.19739 9.39445 8.9447 9.74847 8.59085Z" fill="#F4743B" stroke="black" stroke-width="0.5"/>
</svg>
