<svg width="24" height="24" viewBox="0 0 24 24" fill="none" xmlns="http://www.w3.org/2000/svg">
<mask id="path-1-outside-1_442_16" maskUnits="userSpaceOnUse" x="1" y="0.609375" width="22" height="22" fill="black">
<rect fill="white" x="1" y="0.609375" width="22" height="22"/>
<path d="M20.5355 20.5355C22 19.0711 22 16.714 22 12C22 11.3985 22 10.8354 21.997 10.3076C21.5862 10.7103 21.0949 11.136 20.5683 11.5922L18.0794 13.7493C17.7752 14.0132 17.4343 14.309 17.1257 14.5071C16.8241 14.7006 16.0564 15.1293 15.1692 14.7242C14.2819 14.3191 14.1032 13.4581 14.0519 13.1035C14.0008 12.7497 13.9997 12.3119 13.9999 11.917C12.6707 12.1476 11.4038 12.6706 10.4734 13.3979L10.4235 13.4369C10.0553 13.7248 9.70248 14.0006 9.41851 14.1851C9.27461 14.2786 9.05476 14.4119 8.79732 14.4989C8.5621 14.5783 7.97989 14.7241 7.3799 14.3723C6.83887 14.055 6.65163 13.5503 6.58718 13.2661C6.52494 12.9916 6.53037 12.733 6.53913 12.5701C6.55605 12.2557 6.61832 11.8537 6.67926 11.4602L6.68911 11.3965C7.16402 8.32548 8.50112 6.23021 10.2382 4.9232C11.4376 4.02074 12.763 3.54214 13.9999 3.33772L13.9999 3.11325C13.9997 2.75005 13.9995 2.34729 14.0379 2.00554C13.4122 2 12.7347 2 12 2C7.28595 2 4.92893 2 3.46447 3.46447C2 4.92893 2 7.28595 2 12C2 16.714 2 19.0711 3.46447 20.5355C4.92893 22 7.28595 22 12 22C16.714 22 19.0711 22 20.5355 20.5355Z"/>
<path d="M17.1549 2.43415L19.5121 4.47712C21.1348 5.88345 21.9462 6.58662 21.9462 7.49988C21.9462 8.41314 21.1348 9.1163 19.5121 10.5226L17.1549 12.5656C16.4413 13.184 16.0846 13.4932 15.7922 13.3597C15.4999 13.2262 15.4999 12.7541 15.4999 11.8099V10.2856C13.3755 10.2856 11.1257 10.9841 9.54957 12.2161C8.72623 12.8597 8.31457 13.1815 8.13869 13.0784C7.96281 12.9752 8.03237 12.5254 8.17149 11.6257C9.0161 6.164 12.8002 4.71416 15.4999 4.71416V3.18984C15.4999 2.24562 15.4999 1.77351 15.7922 1.64003C16.0846 1.50656 16.4413 1.81575 17.1549 2.43415Z"/>
</mask>
<path d="M20.5355 20.5355C22 19.0711 22 16.714 22 12C22 11.3985 22 10.8354 21.997 10.3076C21.5862 10.7103 21.0949 11.136 20.5683 11.5922L18.0794 13.7493C17.7752 14.0132 17.4343 14.309 17.1257 14.5071C16.8241 14.7006 16.0564 15.1293 15.1692 14.7242C14.2819 14.3191 14.1032 13.4581 14.0519 13.1035C14.0008 12.7497 13.9997 12.3119 13.9999 11.917C12.6707 12.1476 11.4038 12.6706 10.4734 13.3979L10.4235 13.4369C10.0553 13.7248 9.70248 14.0006 9.41851 14.1851C9.27461 14.2786 9.05476 14.4119 8.79732 14.4989C8.5621 14.5783 7.97989 14.7241 7.3799 14.3723C6.83887 14.055 6.65163 13.5503 6.58718 13.2661C6.52494 12.9916 6.53037 12.733 6.53913 12.5701C6.55605 12.2557 6.61832 11.8537 6.67926 11.4602L6.68911 11.3965C7.16402 8.32548 8.50112 6.23021 10.2382 4.9232C11.4376 4.02074 12.763 3.54214 13.9999 3.33772L13.9999 3.11325C13.9997 2.75005 13.9995 2.34729 14.0379 2.00554C13.4122 2 12.7347 2 12 2C7.28595 2 4.92893 2 3.46447 3.46447C2 4.92893 2 7.28595 2 12C2 16.714 2 19.0711 3.46447 20.5355C4.92893 22 7.28595 22 12 22C16.714 22 19.0711 22 20.5355 20.5355Z" fill="#F4743B"/>
<path d="M17.1549 2.43415L19.5121 4.47712C21.1348 5.88345 21.9462 6.58662 21.9462 7.49988C21.9462 8.41314 21.1348 9.1163 19.5121 10.5226L17.1549 12.5656C16.4413 13.184 16.0846 13.4932 15.7922 13.3597C15.4999 13.2262 15.4999 12.7541 15.4999 11.8099V10.2856C13.3755 10.2856 11.1257 10.9841 9.54957 12.2161C8.72623 12.8597 8.31457 13.1815 8.13869 13.0784C7.96281 12.9752 8.03237 12.5254 8.17149 11.6257C9.0161 6.164 12.8002 4.71416 15.4999 4.71416V3.18984C15.4999 2.24562 15.4999 1.77351 15.7922 1.64003C16.0846 1.50656 16.4413 1.81575 17.1549 2.43415Z" fill="#F4743B"/>
<path d="M3.46447 3.46447L3.11091 3.11091L3.11091 3.11091L3.46447 3.46447ZM3.46447 20.5355L3.81802 20.182L3.81802 20.182L3.46447 20.5355ZM10.4734 13.3979L10.1654 13.004L10.1654 13.004L10.4734 13.3979ZM13.9999 11.917L14.4999 11.9172L14.5002 11.3227L13.9144 11.4244L13.9999 11.917ZM10.4235 13.4369L10.1155 13.043L10.1155 13.043L10.4235 13.4369ZM9.41851 14.1851L9.14612 13.7658L9.14612 13.7658L9.41851 14.1851ZM8.79732 14.4989L8.6374 14.0251L8.6374 14.0251L8.79732 14.4989ZM7.3799 14.3723L7.12697 14.8036L7.12697 14.8036L7.3799 14.3723ZM6.58718 13.2661L6.09956 13.3766L6.09956 13.3766L6.58718 13.2661ZM6.53913 12.5701L7.03841 12.597L7.03841 12.597L6.53913 12.5701ZM6.67926 11.4602L7.17337 11.5367L7.17338 11.5366L6.67926 11.4602ZM6.68911 11.3965L7.18323 11.473L7.18324 11.4729L6.68911 11.3965ZM10.2382 4.9232L10.5388 5.32274L10.5388 5.32274L10.2382 4.9232ZM13.9999 3.33772L14.0815 3.83103L14.5 3.76187L14.4999 3.33767L13.9999 3.33772ZM13.9999 3.11325L14.4999 3.11319L14.4999 3.11298L13.9999 3.11325ZM20.5683 11.5922L20.2409 11.2144L20.2408 11.2144L20.5683 11.5922ZM18.0794 13.7493L17.7519 13.3715L17.7517 13.3716L18.0794 13.7493ZM17.1257 14.5071L16.8557 14.0862L16.8557 14.0862L17.1257 14.5071ZM15.1692 14.7242L15.3769 14.2694L15.3769 14.2694L15.1692 14.7242ZM14.0519 13.1035L14.5468 13.0319L14.5468 13.0319L14.0519 13.1035ZM14.0379 2.00554L14.5348 2.06144L14.5968 1.51048L14.0424 1.50556L14.0379 2.00554ZM21.997 10.3076L22.4969 10.3047L22.4901 9.1239L21.6469 9.95054L21.997 10.3076ZM19.5121 4.47712L19.1847 4.85497L19.1847 4.85497L19.5121 4.47712ZM17.1549 2.43415L17.4823 2.05631L17.4823 2.05631L17.1549 2.43415ZM19.5121 10.5226L19.1847 10.1448L19.1847 10.1448L19.5121 10.5226ZM17.1549 12.5656L17.4823 12.9434L17.4823 12.9434L17.1549 12.5656ZM15.4999 4.71416V5.21416C15.7761 5.21416 15.9999 4.99031 15.9999 4.71416H15.4999ZM15.4999 10.2856H15.9999C15.9999 10.0095 15.7761 9.78559 15.4999 9.78559V10.2856ZM15.7922 13.3597L15.9999 12.9049L15.9999 12.9049L15.7922 13.3597ZM15.7922 1.64003L15.5846 1.18521L15.5846 1.18521L15.7922 1.64003ZM8.17149 11.6257L7.67737 11.5493L8.17149 11.6257ZM9.54957 12.2161L9.24164 11.8222L9.24164 11.8222L9.54957 12.2161ZM21.5 12C21.5 14.3712 21.4989 16.0992 21.3214 17.4197C21.1458 18.7259 20.8058 19.5581 20.182 20.182L20.8891 20.8891C21.7297 20.0485 22.122 18.97 22.3125 17.553C22.5011 16.1504 22.5 14.3429 22.5 12H21.5ZM12 22.5C14.3429 22.5 16.1504 22.5011 17.553 22.3125C18.97 22.122 20.0485 21.7297 20.8891 20.8891L20.182 20.182C19.5581 20.8058 18.7259 21.1458 17.4197 21.3214C16.0992 21.4989 14.3712 21.5 12 21.5V22.5ZM2.5 12C2.5 9.62884 2.50106 7.90077 2.6786 6.58026C2.8542 5.27414 3.19417 4.44187 3.81802 3.81802L3.11091 3.11091C2.27029 3.95153 1.87803 5.03 1.68752 6.44702C1.49894 7.84965 1.5 9.65711 1.5 12H2.5ZM12 1.5C9.65711 1.5 7.84965 1.49894 6.44702 1.68752C5.03 1.87803 3.95153 2.2703 3.11091 3.11091L3.81802 3.81802C4.44187 3.19417 5.27414 2.8542 6.58026 2.6786C7.90077 2.50106 9.62884 2.5 12 2.5V1.5ZM1.5 12C1.5 14.3429 1.49894 16.1504 1.68752 17.553C1.87803 18.97 2.2703 20.0485 3.11091 20.8891L3.81802 20.182C3.19417 19.5581 2.8542 18.7259 2.6786 17.4197C2.50106 16.0992 2.5 14.3712 2.5 12H1.5ZM12 21.5C9.62884 21.5 7.90077 21.4989 6.58026 21.3214C5.27414 21.1458 4.44187 20.8058 3.81802 20.182L3.11091 20.8891C3.95153 21.7297 5.03 22.122 6.44702 22.3125C7.84965 22.5011 9.65711 22.5 12 22.5V21.5ZM10.7813 13.7918C11.6356 13.124 12.8221 12.6288 14.0854 12.4096L13.9144 11.4244C12.5194 11.6664 11.1719 12.2172 10.1654 13.004L10.7813 13.7918ZM10.7315 13.8308L10.7813 13.7918L10.1654 13.004L10.1155 13.043L10.7315 13.8308ZM9.69091 14.6044C9.9974 14.4053 10.3698 14.1135 10.7315 13.8308L10.1155 13.043C9.74082 13.336 9.40756 13.596 9.14612 13.7658L9.69091 14.6044ZM8.95724 14.9726C9.27473 14.8654 9.53638 14.7048 9.69091 14.6044L9.14612 13.7658C9.01284 13.8524 8.8348 13.9585 8.6374 14.0251L8.95724 14.9726ZM7.12697 14.8036C7.91393 15.2651 8.67194 15.0689 8.95724 14.9726L8.6374 14.0251C8.45226 14.0876 8.04586 14.1832 7.63283 13.941L7.12697 14.8036ZM6.09956 13.3766C6.17955 13.7294 6.41868 14.3882 7.12697 14.8036L7.63283 13.941C7.25905 13.7218 7.12371 13.3712 7.07481 13.1555L6.09956 13.3766ZM6.03985 12.5433C6.03026 12.7215 6.022 13.0346 6.09956 13.3766L7.07481 13.1555C7.02787 12.9485 7.03048 12.7444 7.03841 12.597L6.03985 12.5433ZM6.18515 11.3836C6.12554 11.7685 6.05841 12.1984 6.03985 12.5433L7.03841 12.597C7.05369 12.313 7.1111 11.9388 7.17337 11.5367L6.18515 11.3836ZM6.195 11.32L6.18515 11.3837L7.17338 11.5366L7.18323 11.473L6.195 11.32ZM9.93754 4.52367C8.0844 5.91803 6.6874 8.13583 6.19499 11.3201L7.18324 11.4729C7.64063 8.51514 8.91784 6.54239 10.5388 5.32274L9.93754 4.52367ZM13.9184 2.84442C12.6152 3.05977 11.2113 3.56522 9.93754 4.52367L10.5388 5.32274C11.6638 4.47626 12.9107 4.02451 14.0815 3.83103L13.9184 2.84442ZM17.3957 14.9279C17.7409 14.7063 18.1109 14.3839 18.4071 14.127L17.7517 13.3716C17.4395 13.6425 17.1276 13.9117 16.8557 14.0862L17.3957 14.9279ZM14.9615 15.179C16.0981 15.698 17.0693 15.1373 17.3957 14.9279L16.8557 14.0862C16.579 14.2638 16.0147 14.5606 15.3769 14.2694L14.9615 15.179ZM13.5571 13.175C13.6126 13.5589 13.8249 14.66 14.9615 15.179L15.3769 14.2694C14.739 13.9781 14.5938 13.3573 14.5468 13.0319L13.5571 13.175ZM13.4999 11.9168C13.4997 12.3027 13.4998 12.7787 13.5571 13.175L14.5468 13.0319C14.5018 12.7207 14.4997 12.3211 14.4999 11.9172L13.4999 11.9168ZM13.5411 1.94965C13.4989 2.32487 13.4997 2.75765 13.4999 3.11352L14.4999 3.11298C14.4997 2.74245 14.5001 2.36972 14.5348 2.06144L13.5411 1.94965ZM12 2.5C12.7353 2.5 13.4104 2.5 14.0335 2.50552L14.0424 1.50556C13.414 1.5 12.7342 1.5 12 1.5V2.5ZM20.8957 11.9701C21.4191 11.5166 21.9231 11.0802 22.347 10.6646L21.6469 9.95054C21.2494 10.3403 20.7706 10.7553 20.2409 11.2144L20.8957 11.9701ZM22.5 12C22.5 11.3988 22.5 10.8342 22.4969 10.3047L21.497 10.3105C21.5 10.8365 21.5 11.3982 21.5 12H22.5ZM19.8396 4.09928L17.4823 2.05631L16.8274 2.812L19.1847 4.85497L19.8396 4.09928ZM19.1847 10.1448L16.8274 12.1878L17.4823 12.9434L19.8396 10.9005L19.1847 10.1448ZM15.9999 4.71416V3.18984H14.9999V4.71416H15.9999ZM15.4999 4.21416C14.0673 4.21416 12.3336 4.59795 10.8394 5.72227C9.33435 6.85472 8.1172 8.70507 7.67737 11.5493L8.66562 11.7022C9.07039 9.08467 10.1676 7.47923 11.4406 6.52133C12.7245 5.55529 14.2328 5.21416 15.4999 5.21416V4.21416ZM15.9999 11.8099V10.2856H14.9999V11.8099H15.9999ZM9.8575 12.61C11.3342 11.4558 13.4715 10.7856 15.4999 10.7856V9.78559C13.2795 9.78559 10.9173 10.5124 9.24164 11.8222L9.8575 12.61ZM16.8274 12.1878C16.4578 12.5081 16.2227 12.7101 16.0456 12.8238C15.8595 12.9432 15.8991 12.8588 15.9999 12.9049L15.5846 13.8145C15.9777 13.9941 16.3418 13.8219 16.5856 13.6654C16.8384 13.5033 17.1384 13.2415 17.4823 12.9434L16.8274 12.1878ZM14.9999 11.8099C14.9999 12.2651 14.9987 12.6632 15.0416 12.9604C15.0831 13.2471 15.1914 13.635 15.5846 13.8145L15.9999 12.9049C16.1008 12.951 16.063 13.0361 16.0313 12.8173C16.0012 12.609 15.9999 12.299 15.9999 11.8099H14.9999ZM17.4823 2.05631C17.1384 1.75821 16.8384 1.4965 16.5856 1.33433C16.3418 1.17788 15.9777 1.00567 15.5846 1.18521L15.9999 2.09486C15.8991 2.14092 15.8595 2.05657 16.0456 2.17595C16.2227 2.28961 16.4578 2.4917 16.8274 2.812L17.4823 2.05631ZM15.9999 3.18984C15.9999 2.70078 16.0012 2.39074 16.0313 2.18245C16.063 1.96367 16.1008 2.0488 15.9999 2.09486L15.5846 1.18521C15.1914 1.36475 15.0831 1.75267 15.0416 2.03937C14.9987 2.33656 14.9999 2.73468 14.9999 3.18984H15.9999ZM19.1847 4.85497C20.0075 5.56804 20.5835 6.06888 20.9606 6.50181C21.3284 6.92407 21.4462 7.21484 21.4462 7.49988H22.4462C22.4462 6.87166 22.1582 6.35422 21.7147 5.845C21.2804 5.34644 20.6395 4.79253 19.8396 4.09928L19.1847 4.85497ZM19.8396 10.9005C20.6395 10.2072 21.2804 9.65331 21.7147 9.15476C22.1582 8.64554 22.4462 8.1281 22.4462 7.49988H21.4462C21.4462 7.78491 21.3284 8.07569 20.9606 8.49795C20.5835 8.93088 20.0075 9.43171 19.1847 10.1448L19.8396 10.9005ZM7.67737 11.5493C7.60968 11.987 7.55216 12.3549 7.53769 12.6239C7.5305 12.7574 7.53099 12.9063 7.56243 13.045C7.5946 13.1869 7.6761 13.3867 7.88576 13.5097L8.39162 12.647C8.51334 12.7184 8.53757 12.8234 8.53767 12.8238C8.53814 12.8259 8.53581 12.816 8.53462 12.7888C8.53346 12.7623 8.53364 12.726 8.53624 12.6776C8.54736 12.471 8.59419 12.1641 8.66562 11.7022L7.67737 11.5493ZM9.24164 11.8222C8.82145 12.1506 8.53378 12.3749 8.32894 12.508C8.22503 12.5755 8.17341 12.5986 8.15763 12.6039C8.13445 12.6117 8.25025 12.5641 8.39162 12.647L7.88576 13.5097C8.11507 13.6441 8.34828 13.595 8.47748 13.5514C8.61409 13.5053 8.74982 13.427 8.87373 13.3465C9.12453 13.1836 9.45435 12.9252 9.8575 12.61L9.24164 11.8222ZM13.4999 3.11331L13.4999 3.33778L14.4999 3.33767L14.4999 3.11319L13.4999 3.11331ZM18.4069 14.1272L20.8958 11.9701L20.2408 11.2144L17.7519 13.3715L18.4069 14.1272Z" fill="black" mask="url(#path-1-outside-1_442_16)"/>
</svg>
