<svg width="24" height="24" viewBox="0 0 24 24" fill="none" xmlns="http://www.w3.org/2000/svg">
<mask id="path-1-inside-1_442_17" fill="white">
<path fill-rule="evenodd" clip-rule="evenodd" d="M12 22C7.28595 22 4.92893 22 3.46447 20.5355C2 19.0711 2 16.714 2 12C2 7.28595 2 4.92893 3.46447 3.46447C4.92893 2 7.28595 2 12 2C16.714 2 19.0711 2 20.5355 3.46447C22 4.92893 22 7.28595 22 12C22 16.714 22 19.0711 20.5355 20.5355C19.0711 22 16.714 22 12 22ZM12 7.75C11.3787 7.75 10.875 8.25368 10.875 8.875C10.875 9.28921 10.5392 9.625 10.125 9.625C9.71079 9.625 9.375 9.28921 9.375 8.875C9.375 7.42525 10.5503 6.25 12 6.25C13.4497 6.25 14.625 7.42525 14.625 8.875C14.625 9.58584 14.3415 10.232 13.883 10.704C13.7907 10.7989 13.7027 10.8869 13.6187 10.9708C13.4029 11.1864 13.2138 11.3753 13.0479 11.5885C12.8289 11.8699 12.75 12.0768 12.75 12.25V13C12.75 13.4142 12.4142 13.75 12 13.75C11.5858 13.75 11.25 13.4142 11.25 13V12.25C11.25 11.5948 11.555 11.0644 11.8642 10.6672C12.0929 10.3733 12.3804 10.0863 12.6138 9.85346C12.6842 9.78321 12.7496 9.71789 12.807 9.65877C13.0046 9.45543 13.125 9.18004 13.125 8.875C13.125 8.25368 12.6213 7.75 12 7.75ZM12 17C12.5523 17 13 16.5523 13 16C13 15.4477 12.5523 15 12 15C11.4477 15 11 15.4477 11 16C11 16.5523 11.4477 17 12 17Z"/>
</mask>
<path fill-rule="evenodd" clip-rule="evenodd" d="M12 22C7.28595 22 4.92893 22 3.46447 20.5355C2 19.0711 2 16.714 2 12C2 7.28595 2 4.92893 3.46447 3.46447C4.92893 2 7.28595 2 12 2C16.714 2 19.0711 2 20.5355 3.46447C22 4.92893 22 7.28595 22 12C22 16.714 22 19.0711 20.5355 20.5355C19.0711 22 16.714 22 12 22ZM12 7.75C11.3787 7.75 10.875 8.25368 10.875 8.875C10.875 9.28921 10.5392 9.625 10.125 9.625C9.71079 9.625 9.375 9.28921 9.375 8.875C9.375 7.42525 10.5503 6.25 12 6.25C13.4497 6.25 14.625 7.42525 14.625 8.875C14.625 9.58584 14.3415 10.232 13.883 10.704C13.7907 10.7989 13.7027 10.8869 13.6187 10.9708C13.4029 11.1864 13.2138 11.3753 13.0479 11.5885C12.8289 11.8699 12.75 12.0768 12.75 12.25V13C12.75 13.4142 12.4142 13.75 12 13.75C11.5858 13.75 11.25 13.4142 11.25 13V12.25C11.25 11.5948 11.555 11.0644 11.8642 10.6672C12.0929 10.3733 12.3804 10.0863 12.6138 9.85346C12.6842 9.78321 12.7496 9.71789 12.807 9.65877C13.0046 9.45543 13.125 9.18004 13.125 8.875C13.125 8.25368 12.6213 7.75 12 7.75ZM12 17C12.5523 17 13 16.5523 13 16C13 15.4477 12.5523 15 12 15C11.4477 15 11 15.4477 11 16C11 16.5523 11.4477 17 12 17Z" fill="#F4743B"/>
<path d="M13.883 10.704L14.2416 11.0524L14.2416 11.0524L13.883 10.704ZM13.6187 10.9708L13.9721 11.3245L13.9721 11.3245L13.6187 10.9708ZM13.0479 11.5885L13.4425 11.8956L13.4425 11.8956L13.0479 11.5885ZM11.8642 10.6672L11.4696 10.3601L11.4696 10.3601L11.8642 10.6672ZM12.6138 9.85346L12.967 10.2074L12.967 10.2074L12.6138 9.85346ZM12.807 9.65877L12.4484 9.31037L12.4484 9.31038L12.807 9.65877ZM12 21.5C9.62884 21.5 7.90077 21.4989 6.58026 21.3214C5.27414 21.1458 4.44187 20.8058 3.81802 20.182L3.11091 20.8891C3.95153 21.7297 5.03 22.122 6.44702 22.3125C7.84965 22.5011 9.65711 22.5 12 22.5V21.5ZM1.5 12C1.5 14.3429 1.49894 16.1504 1.68752 17.553C1.87803 18.97 2.2703 20.0485 3.11091 20.8891L3.81802 20.182C3.19417 19.5581 2.8542 18.7259 2.6786 17.4197C2.50106 16.0992 2.5 14.3712 2.5 12H1.5ZM21.5 12C21.5 14.3712 21.4989 16.0992 21.3214 17.4197C21.1458 18.7259 20.8058 19.5581 20.182 20.182L20.8891 20.8891C21.7297 20.0485 22.122 18.97 22.3125 17.553C22.5011 16.1504 22.5 14.3429 22.5 12H21.5ZM12 22.5C14.3429 22.5 16.1504 22.5011 17.553 22.3125C18.97 22.122 20.0485 21.7297 20.8891 20.8891L20.182 20.182C19.5581 20.8058 18.7259 21.1458 17.4197 21.3214C16.0992 21.4989 14.3712 21.5 12 21.5V22.5ZM12 2.5C14.3712 2.5 16.0992 2.50106 17.4197 2.6786C18.7259 2.8542 19.5581 3.19417 20.182 3.81802L20.8891 3.11091C20.0485 2.2703 18.97 1.87803 17.553 1.68752C16.1504 1.49894 14.3429 1.5 12 1.5V2.5ZM22.5 12C22.5 9.65711 22.5011 7.84965 22.3125 6.44702C22.122 5.03 21.7297 3.95153 20.8891 3.11091L20.182 3.81802C20.8058 4.44187 21.1458 5.27414 21.3214 6.58026C21.4989 7.90077 21.5 9.62884 21.5 12H22.5ZM12 1.5C9.65711 1.5 7.84965 1.49894 6.44702 1.68752C5.03 1.87803 3.95153 2.2703 3.11091 3.11091L3.81802 3.81802C4.44187 3.19417 5.27414 2.8542 6.58026 2.6786C7.90077 2.50106 9.62884 2.5 12 2.5V1.5ZM2.5 12C2.5 9.62884 2.50106 7.90077 2.6786 6.58026C2.8542 5.27414 3.19417 4.44187 3.81802 3.81802L3.11091 3.11091C2.2703 3.95153 1.87803 5.03 1.68752 6.44702C1.49894 7.84965 1.5 9.65711 1.5 12H2.5ZM11.375 8.875C11.375 8.52982 11.6548 8.25 12 8.25V7.25C11.1025 7.25 10.375 7.97754 10.375 8.875H11.375ZM10.125 10.125C10.8154 10.125 11.375 9.56536 11.375 8.875H10.375C10.375 9.01307 10.2631 9.125 10.125 9.125V10.125ZM8.875 8.875C8.875 9.56536 9.43464 10.125 10.125 10.125V9.125C9.98693 9.125 9.875 9.01307 9.875 8.875H8.875ZM12 5.75C10.2741 5.75 8.875 7.14911 8.875 8.875H9.875C9.875 7.70139 10.8264 6.75 12 6.75V5.75ZM15.125 8.875C15.125 7.14911 13.7259 5.75 12 5.75V6.75C13.1736 6.75 14.125 7.70139 14.125 8.875H15.125ZM14.2416 11.0524C14.787 10.4909 15.125 9.72119 15.125 8.875H14.125C14.125 9.45049 13.8959 9.97307 13.5243 10.3556L14.2416 11.0524ZM13.9721 11.3245C14.0558 11.2409 14.1464 11.1504 14.2416 11.0524L13.5243 10.3556C13.435 10.4475 13.3496 10.5329 13.2653 10.6171L13.9721 11.3245ZM13.4425 11.8956C13.5859 11.7113 13.752 11.5444 13.9721 11.3245L13.2653 10.6171C13.0538 10.8284 12.8417 11.0393 12.6533 11.2814L13.4425 11.8956ZM13.25 12.25C13.25 12.2371 13.2538 12.138 13.4425 11.8956L12.6533 11.2814C12.4039 11.6019 12.25 11.9165 12.25 12.25H13.25ZM13.25 13V12.25H12.25V13H13.25ZM12 14.25C12.6904 14.25 13.25 13.6904 13.25 13H12.25C12.25 13.1381 12.1381 13.25 12 13.25V14.25ZM10.75 13C10.75 13.6904 11.3096 14.25 12 14.25V13.25C11.8619 13.25 11.75 13.1381 11.75 13H10.75ZM10.75 12.25V13H11.75V12.25H10.75ZM11.4696 10.3601C11.1305 10.7958 10.75 11.434 10.75 12.25H11.75C11.75 11.7556 11.9795 11.3331 12.2587 10.9743L11.4696 10.3601ZM12.2606 9.49956C12.0313 9.72835 11.7209 10.0372 11.4696 10.3601L12.2587 10.9743C12.465 10.7093 12.7295 10.4443 12.967 10.2074L12.2606 9.49956ZM12.4484 9.31038C12.3942 9.36616 12.3317 9.42858 12.2606 9.49956L12.967 10.2074C13.0366 10.1379 13.105 10.0696 13.1657 10.0072L12.4484 9.31038ZM12.625 8.875C12.625 9.04498 12.5588 9.19673 12.4484 9.31037L13.1657 10.0072C13.4504 9.71413 13.625 9.31511 13.625 8.875H12.625ZM12 8.25C12.3452 8.25 12.625 8.52982 12.625 8.875H13.625C13.625 7.97754 12.8975 7.25 12 7.25V8.25ZM12.5 16C12.5 16.2761 12.2761 16.5 12 16.5V17.5C12.8284 17.5 13.5 16.8284 13.5 16H12.5ZM12 16.5C11.7239 16.5 11.5 16.2761 11.5 16H10.5C10.5 16.8284 11.1716 17.5 12 17.5V16.5ZM11.5 16C11.5 15.7239 11.7239 15.5 12 15.5V14.5C11.1716 14.5 10.5 15.1716 10.5 16H11.5ZM12 15.5C12.2761 15.5 12.5 15.7239 12.5 16H13.5C13.5 15.1716 12.8284 14.5 12 14.5V15.5Z" fill="black" mask="url(#path-1-inside-1_442_17)"/>
</svg>
