<svg width="24" height="24" viewBox="0 0 24 24" fill="none" xmlns="http://www.w3.org/2000/svg">
<path d="M6.28705 3.30711C6.56731 3.4232 6.75004 3.69668 6.75004 4.00002V10C6.75004 10.4142 6.41425 10.75 6.00004 10.75C5.58582 10.75 5.25004 10.4142 5.25004 10V5.81068L4.53037 6.53035C4.23748 6.82325 3.7626 6.82325 3.46971 6.53035C3.17682 6.23746 3.17682 5.76259 3.46971 5.46969L5.46971 3.46969C5.68421 3.25519 6.0068 3.19103 6.28705 3.30711Z" fill="#F4743B"/>
<path d="M6.00004 14.75C5.66852 14.75 5.35058 14.8817 5.11615 15.1161C4.88173 15.3506 4.75004 15.6685 4.75004 16C4.75004 16.4142 4.41425 16.75 4.00004 16.75C3.58582 16.75 3.25004 16.4142 3.25004 16C3.25004 15.2707 3.53977 14.5712 4.05549 14.0555C4.57122 13.5398 5.27069 13.25 6.00004 13.25C6.72938 13.25 7.42886 13.5398 7.94458 14.0555C8.46031 14.5712 8.75004 15.2707 8.75004 16C8.75004 16.5278 8.52041 16.9381 8.27727 17.2475C8.10087 17.472 7.87119 17.6964 7.67807 17.885C7.62553 17.9363 7.57568 17.985 7.53037 18.0304C7.51434 18.0464 7.49759 18.0617 7.48018 18.0762L6.07158 19.25H8.00004C8.41425 19.25 8.75004 19.5858 8.75004 20C8.75004 20.4142 8.41425 20.75 8.00004 20.75H4.00004C3.68427 20.75 3.40233 20.5522 3.29483 20.2553C3.18734 19.9584 3.27732 19.626 3.5199 19.4239L6.49405 16.9454C6.56211 16.8776 6.62454 16.8165 6.68218 16.76C6.85701 16.5889 6.98776 16.4608 7.09781 16.3208C7.22967 16.153 7.25004 16.0633 7.25004 16C7.25004 15.6685 7.11834 15.3506 6.88392 15.1161C6.6495 14.8817 6.33156 14.75 6.00004 14.75Z" fill="#F4743B"/>
<path d="M11 18.25C10.5858 18.25 10.25 18.5858 10.25 19C10.25 19.4142 10.5858 19.75 11 19.75L22 19.75C22.4143 19.75 22.75 19.4142 22.75 19C22.75 18.5858 22.4143 18.25 22 18.25H11Z" fill="#F4743B"/>
<path d="M10.25 12C10.25 11.5858 10.5858 11.25 11 11.25H22C22.4143 11.25 22.75 11.5858 22.75 12C22.75 12.4142 22.4143 12.75 22 12.75H11C10.5858 12.75 10.25 12.4142 10.25 12Z" fill="#F4743B"/>
<path d="M11 4.25002C10.5858 4.25002 10.25 4.58581 10.25 5.00002C10.25 5.41424 10.5858 5.75002 11 5.75002H22C22.4143 5.75002 22.75 5.41424 22.75 5.00002C22.75 4.58581 22.4143 4.25002 22 4.25002H11Z" fill="#F4743B"/>
<path d="M6.28705 3.30711C6.56731 3.4232 6.75004 3.69668 6.75004 4.00002V10C6.75004 10.4142 6.41425 10.75 6.00004 10.75C5.58582 10.75 5.25004 10.4142 5.25004 10V5.81068L4.53037 6.53035C4.23748 6.82325 3.7626 6.82325 3.46971 6.53035C3.17682 6.23746 3.17682 5.76259 3.46971 5.46969L5.46971 3.46969C5.68421 3.25519 6.0068 3.19103 6.28705 3.30711Z" stroke="black" stroke-width="0.5" stroke-linecap="round"/>
<path d="M6.00004 14.75C5.66852 14.75 5.35058 14.8817 5.11615 15.1161C4.88173 15.3506 4.75004 15.6685 4.75004 16C4.75004 16.4142 4.41425 16.75 4.00004 16.75C3.58582 16.75 3.25004 16.4142 3.25004 16C3.25004 15.2707 3.53977 14.5712 4.05549 14.0555C4.57122 13.5398 5.27069 13.25 6.00004 13.25C6.72938 13.25 7.42886 13.5398 7.94458 14.0555C8.46031 14.5712 8.75004 15.2707 8.75004 16C8.75004 16.5278 8.52041 16.9381 8.27727 17.2475C8.10087 17.472 7.87119 17.6964 7.67807 17.885C7.62553 17.9363 7.57568 17.985 7.53037 18.0304C7.51434 18.0464 7.49759 18.0617 7.48018 18.0762L6.07158 19.25H8.00004C8.41425 19.25 8.75004 19.5858 8.75004 20C8.75004 20.4142 8.41425 20.75 8.00004 20.75H4.00004C3.68427 20.75 3.40233 20.5522 3.29483 20.2553C3.18734 19.9584 3.27732 19.626 3.5199 19.4239L6.49405 16.9454C6.56211 16.8776 6.62454 16.8165 6.68218 16.76C6.85701 16.5889 6.98776 16.4608 7.09781 16.3208C7.22967 16.153 7.25004 16.0633 7.25004 16C7.25004 15.6685 7.11834 15.3506 6.88392 15.1161C6.6495 14.8817 6.33156 14.75 6.00004 14.75Z" stroke="black" stroke-width="0.5" stroke-linecap="round"/>
<path d="M11 18.25C10.5858 18.25 10.25 18.5858 10.25 19C10.25 19.4142 10.5858 19.75 11 19.75L22 19.75C22.4143 19.75 22.75 19.4142 22.75 19C22.75 18.5858 22.4143 18.25 22 18.25H11Z" stroke="black" stroke-width="0.5" stroke-linecap="round"/>
<path d="M10.25 12C10.25 11.5858 10.5858 11.25 11 11.25H22C22.4143 11.25 22.75 11.5858 22.75 12C22.75 12.4142 22.4143 12.75 22 12.75H11C10.5858 12.75 10.25 12.4142 10.25 12Z" stroke="black" stroke-width="0.5" stroke-linecap="round"/>
<path d="M11 4.25002C10.5858 4.25002 10.25 4.58581 10.25 5.00002C10.25 5.41424 10.5858 5.75002 11 5.75002H22C22.4143 5.75002 22.75 5.41424 22.75 5.00002C22.75 4.58581 22.4143 4.25002 22 4.25002H11Z" stroke="black" stroke-width="0.5" stroke-linecap="round"/>
</svg>
