<svg width="24" height="24" viewBox="0 0 24 24" fill="none" xmlns="http://www.w3.org/2000/svg">
<path fill-rule="evenodd" clip-rule="evenodd" d="M12 22C7.28595 22 4.92893 22 3.46447 20.5355C2 19.0711 2 16.714 2 12C2 7.28595 2 4.92893 3.46447 3.46447C4.92893 2 7.28595 2 12 2C16.714 2 19.0711 2 20.5355 3.46447C22 4.92893 22 7.28595 22 12C22 16.714 22 19.0711 20.5355 20.5355C19.0711 22 16.714 22 12 22ZM12 8.25C12.4142 8.25 12.75 8.58579 12.75 9V11.25H15C15.4142 11.25 15.75 11.5858 15.75 12C15.75 12.4142 15.4142 12.75 15 12.75H12.75L12.75 15C12.75 15.4142 12.4142 15.75 12 15.75C11.5858 15.75 11.25 15.4142 11.25 15V12.75H9C8.58579 12.75 8.25 12.4142 8.25 12C8.25 11.5858 8.58579 11.25 9 11.25H11.25L11.25 9C11.25 8.58579 11.5858 8.25 12 8.25Z" fill="#F4743B"/>
<path d="M12.75 11.25H12.5V11.5H12.75V11.25ZM12.75 12.75V12.5H12.5L12.5 12.75L12.75 12.75ZM12.75 15L12.5 15V15H12.75ZM11.25 12.75H11.5V12.5H11.25V12.75ZM8.25 12L8.5 12L8.25 12ZM11.25 11.25V11.5H11.5L11.5 11.25L11.25 11.25ZM11.25 9L11.5 9V9H11.25ZM12 21.75C9.63591 21.75 7.88799 21.7495 6.54695 21.5692C5.21311 21.3898 4.31928 21.0368 3.64124 20.3588L3.28769 20.7123C4.07411 21.4987 5.09104 21.8779 6.48033 22.0647C7.86243 22.2505 9.65004 22.25 12 22.25V21.75ZM1.75 12C1.75 14.35 1.74947 16.1376 1.93529 17.5197C2.12207 18.909 2.50126 19.9259 3.28769 20.7123L3.64124 20.3588C2.9632 19.6807 2.61016 18.7869 2.43083 17.453C2.25053 16.112 2.25 14.3641 2.25 12H1.75ZM21.75 12C21.75 14.3641 21.7495 16.112 21.5692 17.453C21.3898 18.7869 21.0368 19.6807 20.3588 20.3588L20.7123 20.7123C21.4987 19.9259 21.8779 18.909 22.0647 17.5197C22.2505 16.1376 22.25 14.35 22.25 12H21.75ZM12 22.25C14.35 22.25 16.1376 22.2505 17.5197 22.0647C18.909 21.8779 19.9259 21.4987 20.7123 20.7123L20.3588 20.3588C19.6807 21.0368 18.7869 21.3898 17.453 21.5692C16.112 21.7495 14.3641 21.75 12 21.75V22.25ZM12 2.25C14.3641 2.25 16.112 2.25053 17.453 2.43083C18.7869 2.61016 19.6807 2.9632 20.3588 3.64124L20.7123 3.28769C19.9259 2.50126 18.909 2.12207 17.5197 1.93529C16.1376 1.74947 14.35 1.75 12 1.75V2.25ZM22.25 12C22.25 9.65004 22.2505 7.86243 22.0647 6.48033C21.8779 5.09104 21.4987 4.07411 20.7123 3.28769L20.3588 3.64124C21.0368 4.31928 21.3898 5.21311 21.5692 6.54695C21.7495 7.88799 21.75 9.63591 21.75 12H22.25ZM12 1.75C9.65004 1.75 7.86243 1.74947 6.48033 1.93529C5.09104 2.12207 4.07411 2.50126 3.28769 3.28769L3.64124 3.64124C4.31928 2.9632 5.21311 2.61016 6.54695 2.43083C7.88799 2.25053 9.63591 2.25 12 2.25V1.75ZM2.25 12C2.25 9.63591 2.25053 7.88799 2.43083 6.54695C2.61016 5.21311 2.9632 4.31928 3.64124 3.64124L3.28769 3.28769C2.50126 4.07411 2.12207 5.09104 1.93529 6.48033C1.74947 7.86243 1.75 9.65004 1.75 12H2.25ZM13 9C13 8.44772 12.5523 8 12 8V8.5C12.2761 8.5 12.5 8.72386 12.5 9H13ZM13 11.25V9H12.5V11.25H13ZM15 11H12.75V11.5H15V11ZM16 12C16 11.4477 15.5523 11 15 11V11.5C15.2761 11.5 15.5 11.7239 15.5 12H16ZM15 13C15.5523 13 16 12.5523 16 12H15.5C15.5 12.2762 15.2761 12.5 15 12.5V13ZM12.75 13H15V12.5H12.75V13ZM13 15L13 12.75L12.5 12.75L12.5 15L13 15ZM12 16C12.5523 16 13 15.5523 13 15H12.5C12.5 15.2761 12.2761 15.5 12 15.5V16ZM11 15C11 15.5523 11.4477 16 12 16V15.5C11.7239 15.5 11.5 15.2761 11.5 15H11ZM11 12.75V15H11.5V12.75H11ZM9 13H11.25V12.5H9V13ZM8 12C8 12.5523 8.44772 13 9 13V12.5C8.72386 12.5 8.5 12.2762 8.5 12L8 12ZM9 11C8.44772 11 8 11.4477 8 12L8.5 12C8.5 11.7239 8.72386 11.5 9 11.5V11ZM11.25 11H9V11.5H11.25V11ZM11 9L11 11.25L11.5 11.25L11.5 9L11 9ZM12 8C11.4477 8 11 8.44772 11 9H11.5C11.5 8.72386 11.7239 8.5 12 8.5V8Z" fill="black"/>
</svg>
