<svg width="24" height="24" viewBox="0 0 24 24" fill="none" xmlns="http://www.w3.org/2000/svg">
<path fill-rule="evenodd" clip-rule="evenodd" d="M14.2788 2.15224C13.9085 2 13.439 2 12.5 2C11.561 2 11.0915 2 10.7212 2.15224C10.2274 2.35523 9.83509 2.74458 9.63056 3.23463C9.53719 3.45834 9.50065 3.7185 9.48635 4.09799C9.46534 4.65568 9.17716 5.17189 8.69017 5.45093C8.20318 5.72996 7.60864 5.71954 7.11149 5.45876C6.77318 5.2813 6.52789 5.18262 6.28599 5.15102C5.75609 5.08178 5.22018 5.22429 4.79616 5.5472C4.47814 5.78938 4.24339 6.1929 3.7739 6.99993C3.30441 7.80697 3.06967 8.21048 3.01735 8.60491C2.94758 9.1308 3.09118 9.66266 3.41655 10.0835C3.56506 10.2756 3.77377 10.437 4.0977 10.639C4.57391 10.936 4.88032 11.4419 4.88029 12C4.88026 12.5581 4.57386 13.0639 4.0977 13.3608C3.77372 13.5629 3.56497 13.7244 3.41645 13.9165C3.09108 14.3373 2.94749 14.8691 3.01725 15.395C3.06957 15.7894 3.30432 16.193 3.7738 17C4.24329 17.807 4.47804 18.2106 4.79606 18.4527C5.22008 18.7756 5.75599 18.9181 6.28589 18.8489C6.52778 18.8173 6.77305 18.7186 7.11133 18.5412C7.60852 18.2804 8.2031 18.27 8.69012 18.549C9.17714 18.8281 9.46533 19.3443 9.48635 19.9021C9.50065 20.2815 9.53719 20.5417 9.63056 20.7654C9.83509 21.2554 10.2274 21.6448 10.7212 21.8478C11.0915 22 11.561 22 12.5 22C13.439 22 13.9085 22 14.2788 21.8478C14.7726 21.6448 15.1649 21.2554 15.3694 20.7654C15.4628 20.5417 15.4994 20.2815 15.5137 19.902C15.5347 19.3443 15.8228 18.8281 16.3098 18.549C16.7968 18.2699 17.3914 18.2804 17.8886 18.5412C18.2269 18.7186 18.4721 18.8172 18.714 18.8488C19.2439 18.9181 19.7798 18.7756 20.2038 18.4527C20.5219 18.2105 20.7566 17.807 21.2261 16.9999C21.6956 16.1929 21.9303 15.7894 21.9827 15.395C22.0524 14.8691 21.9088 14.3372 21.5835 13.9164C21.4349 13.7243 21.2262 13.5628 20.9022 13.3608C20.4261 13.0639 20.1197 12.558 20.1197 11.9999C20.1197 11.4418 20.4261 10.9361 20.9022 10.6392C21.2263 10.4371 21.435 10.2757 21.5836 10.0835C21.9089 9.66273 22.0525 9.13087 21.9828 8.60497C21.9304 8.21055 21.6957 7.80703 21.2262 7C20.7567 6.19297 20.522 5.78945 20.2039 5.54727C19.7799 5.22436 19.244 5.08185 18.7141 5.15109C18.4722 5.18269 18.2269 5.28136 17.8887 5.4588C17.3915 5.71959 16.7969 5.73002 16.3099 5.45096C15.8229 5.17191 15.5347 4.65566 15.5136 4.09794C15.4993 3.71848 15.4628 3.45833 15.3694 3.23463C15.1649 2.74458 14.7726 2.35523 14.2788 2.15224ZM12.5 15C14.1695 15 15.5228 13.6569 15.5228 12C15.5228 10.3431 14.1695 9 12.5 9C10.8305 9 9.47716 10.3431 9.47716 12C9.47716 13.6569 10.8305 15 12.5 15Z" fill="#F4743B"/>
<path d="M14.2788 2.15224L14.3739 1.92102L14.3739 1.92102L14.2788 2.15224ZM10.7212 2.15224L10.8162 2.38347L10.8162 2.38347L10.7212 2.15224ZM9.63056 3.23463L9.86127 3.33092L9.86127 3.33092L9.63056 3.23463ZM9.48635 4.09799L9.23653 4.08858L9.23653 4.08858L9.48635 4.09799ZM8.69017 5.45093L8.56588 5.23401L8.56588 5.23401L8.69017 5.45093ZM7.11149 5.45876L7.22762 5.23737L7.22762 5.23737L7.11149 5.45876ZM6.28599 5.15102L6.2536 5.39891L6.2536 5.39891L6.28599 5.15102ZM4.79616 5.5472L4.94762 5.74609L4.94762 5.74609L4.79616 5.5472ZM3.7739 6.99993L3.99 7.12564L3.99 7.12564L3.7739 6.99993ZM3.01735 8.60491L2.76952 8.57203L2.76952 8.57203L3.01735 8.60491ZM3.41655 10.0835L3.21877 10.2364L3.21877 10.2364L3.41655 10.0835ZM4.0977 10.639L4.22999 10.4269L4.22999 10.4269L4.0977 10.639ZM4.88029 12L4.63029 12L4.63029 12L4.88029 12ZM4.0977 13.3608L4.22998 13.573L4.22998 13.573L4.0977 13.3608ZM3.41645 13.9165L3.21867 13.7635L3.21867 13.7635L3.41645 13.9165ZM3.01725 15.395L2.76942 15.4279L3.01725 15.395ZM3.7738 17L3.55771 17.1257L3.55771 17.1257L3.7738 17ZM4.79606 18.4527L4.94752 18.2538L4.94752 18.2538L4.79606 18.4527ZM6.28589 18.8489L6.31828 19.0968L6.31828 19.0968L6.28589 18.8489ZM7.11133 18.5412L7.22746 18.7626L7.22746 18.7626L7.11133 18.5412ZM8.69012 18.549L8.81441 18.3321L8.81441 18.3321L8.69012 18.549ZM9.48635 19.9021L9.23653 19.9115L9.23653 19.9115L9.48635 19.9021ZM9.63056 20.7654L9.39985 20.8617L9.39985 20.8617L9.63056 20.7654ZM10.7212 21.8478L10.8162 21.6165L10.8162 21.6165L10.7212 21.8478ZM14.2788 21.8478L14.3739 22.079L14.3739 22.079L14.2788 21.8478ZM15.3694 20.7654L15.1387 20.6691L15.1387 20.6691L15.3694 20.7654ZM15.5137 19.902L15.7635 19.9114L15.7635 19.9114L15.5137 19.902ZM16.3098 18.549L16.4341 18.7659L16.4341 18.7659L16.3098 18.549ZM17.8886 18.5412L17.7725 18.7625L17.7725 18.7625L17.8886 18.5412ZM18.714 18.8488L18.6816 19.0967L18.6816 19.0967L18.714 18.8488ZM20.2038 18.4527L20.3553 18.6516L20.3553 18.6516L20.2038 18.4527ZM21.9827 15.395L21.7348 15.3621L21.7348 15.3621L21.9827 15.395ZM21.5835 13.9164L21.7812 13.7635L21.7812 13.7635L21.5835 13.9164ZM20.9022 13.3608L21.0345 13.1487L21.0345 13.1487L20.9022 13.3608ZM20.1197 11.9999L20.3697 11.9999L20.3697 11.9999L20.1197 11.9999ZM20.9022 10.6392L21.0345 10.8513L21.0345 10.8513L20.9022 10.6392ZM21.5836 10.0835L21.3858 9.93063L21.3858 9.93063L21.5836 10.0835ZM21.9828 8.60497L21.7349 8.63785L21.7349 8.63785L21.9828 8.60497ZM20.2039 5.54727L20.3554 5.34837L20.3554 5.34837L20.2039 5.54727ZM18.7141 5.15109L18.6817 4.90319L18.6817 4.90319L18.7141 5.15109ZM17.8887 5.4588L18.0048 5.68019L18.0048 5.68019L17.8887 5.4588ZM16.3099 5.45096L16.4342 5.23405L16.4342 5.23405L16.3099 5.45096ZM15.5136 4.09794L15.7635 4.08852L15.7635 4.08852L15.5136 4.09794ZM15.3694 3.23463L15.6002 3.13834L15.6002 3.13834L15.3694 3.23463ZM14.3739 1.92102C14.1533 1.83036 13.9132 1.78949 13.6195 1.7696C13.3281 1.74987 12.9661 1.75 12.5 1.75V2.25C12.9729 2.25 13.3151 2.25013 13.5858 2.26846C13.8542 2.28663 14.0339 2.32188 14.1838 2.38347L14.3739 1.92102ZM12.5 1.75C12.0339 1.75 11.6719 1.74987 11.3805 1.7696C11.0868 1.78949 10.8467 1.83036 10.6261 1.92102L10.8162 2.38347C10.9661 2.32188 11.1458 2.28663 11.4142 2.26846C11.6849 2.25013 12.0271 2.25 12.5 2.25V1.75ZM10.6261 1.92102C10.0714 2.14906 9.63007 2.58673 9.39985 3.13834L9.86127 3.33092C10.0401 2.90243 10.3834 2.5614 10.8162 2.38347L10.6261 1.92102ZM9.39985 3.13834C9.2887 3.40464 9.25111 3.70155 9.23653 4.08858L9.73617 4.1074C9.75019 3.73545 9.78568 3.51204 9.86127 3.33092L9.39985 3.13834ZM9.23653 4.08858C9.21849 4.56719 8.97205 5.00129 8.56588 5.23401L8.81445 5.66785C9.38226 5.3425 9.71218 4.74417 9.73617 4.1074L9.23653 4.08858ZM8.56588 5.23401C8.15942 5.46691 7.65591 5.46203 7.22762 5.23737L6.99536 5.68015C7.56136 5.97705 8.24694 5.99302 8.81445 5.66785L8.56588 5.23401ZM7.22762 5.23737C6.88269 5.05644 6.60543 4.94063 6.31838 4.90312L6.2536 5.39891C6.45034 5.42461 6.66367 5.50616 6.99536 5.68015L7.22762 5.23737ZM6.31838 4.90312C5.72333 4.82538 5.12131 4.98535 4.64469 5.34831L4.94762 5.74609C5.31906 5.46323 5.78885 5.33819 6.2536 5.39891L6.31838 4.90312ZM4.64469 5.34831C4.4551 5.49268 4.29915 5.6789 4.13483 5.92157C3.97179 6.16233 3.79083 6.47367 3.55781 6.87422L3.99 7.12564C4.22647 6.71916 4.39762 6.42522 4.54883 6.20192C4.69876 5.98052 4.81919 5.8439 4.94762 5.74609L4.64469 5.34831ZM3.55781 6.87422C3.32479 7.27477 3.14359 7.58598 3.01501 7.8465C2.88543 8.10903 2.80077 8.33642 2.76952 8.57203L3.26518 8.63778C3.28624 8.47897 3.34512 8.30739 3.46337 8.06779C3.58261 7.8262 3.75352 7.53213 3.99 7.12564L3.55781 6.87422ZM2.76952 8.57203C2.69096 9.16425 2.85272 9.76296 3.21877 10.2364L3.61433 9.93056C3.32964 9.56236 3.20421 9.09735 3.26518 8.63778L2.76952 8.57203ZM3.21877 10.2364C3.39533 10.4648 3.63524 10.6453 3.96542 10.8512L4.22999 10.4269C3.91231 10.2288 3.73478 10.0864 3.61433 9.93056L3.21877 10.2364ZM3.96542 10.8512C4.37549 11.1069 4.63032 11.5362 4.63029 12L5.13029 12C5.13033 11.3475 4.77234 10.7651 4.22999 10.4269L3.96542 10.8512ZM4.63029 12C4.63027 12.4638 4.37545 12.893 3.96542 13.1487L4.22998 13.573C4.77228 13.2348 5.13026 12.6525 5.13029 12L4.63029 12ZM3.96542 13.1487C3.63519 13.3546 3.39525 13.5352 3.21867 13.7635L3.61423 14.0694C3.7347 13.9136 3.91224 13.7711 4.22998 13.573L3.96542 13.1487ZM3.21867 13.7635C2.85263 14.237 2.69086 14.8357 2.76942 15.4279L3.26508 15.3622C3.20411 14.9026 3.32954 14.4376 3.61423 14.0694L3.21867 13.7635ZM2.76942 15.4279C2.80067 15.6635 2.88533 15.8909 3.01491 16.1534C3.14349 16.414 3.32469 16.7252 3.55771 17.1257L3.9899 16.8743C3.75343 16.4678 3.58251 16.1737 3.46327 15.9321C3.34502 15.6925 3.28614 15.521 3.26508 15.3622L2.76942 15.4279ZM3.55771 17.1257C3.79073 17.5263 3.97169 17.8376 4.13473 18.0784C4.29905 18.321 4.45501 18.5072 4.64459 18.6516L4.94752 18.2538C4.81909 18.156 4.69866 18.0194 4.54874 17.798C4.39752 17.5747 4.22637 17.2808 3.9899 16.8743L3.55771 17.1257ZM4.64459 18.6516C5.12121 19.0146 5.72323 19.1746 6.31828 19.0968L6.2535 18.601C5.78875 18.6617 5.31896 18.5367 4.94752 18.2538L4.64459 18.6516ZM6.31828 19.0968C6.60532 19.0593 6.88256 18.9435 7.22746 18.7626L6.9952 18.3198C6.66355 18.4938 6.45023 18.5753 6.2535 18.601L6.31828 19.0968ZM7.22746 18.7626C7.65579 18.5379 8.15934 18.533 8.56583 18.766L8.81441 18.3321C8.24686 18.0069 7.56124 18.0229 6.9952 18.3198L7.22746 18.7626ZM8.56583 18.766C8.97203 18.9987 9.21849 19.4328 9.23653 19.9115L9.73618 19.8926C9.71218 19.2559 9.38225 18.6575 8.81441 18.3321L8.56583 18.766ZM9.23653 19.9115C9.25112 20.2985 9.28871 20.5954 9.39985 20.8617L9.86127 20.6691C9.78568 20.488 9.75019 20.2646 9.73618 19.8926L9.23653 19.9115ZM9.39985 20.8617C9.63007 21.4133 10.0714 21.8509 10.6261 22.079L10.8162 21.6165C10.3834 21.4386 10.0401 21.0976 9.86127 20.6691L9.39985 20.8617ZM10.6261 22.079C10.8467 22.1696 11.0868 22.2105 11.3805 22.2304C11.6719 22.2501 12.0339 22.25 12.5 22.25V21.75C12.0271 21.75 11.6849 21.7499 11.4142 21.7315C11.1458 21.7134 10.9661 21.6781 10.8162 21.6165L10.6261 22.079ZM12.5 22.25C12.9661 22.25 13.3281 22.2501 13.6195 22.2304C13.9132 22.2105 14.1533 22.1696 14.3739 22.079L14.1838 21.6165C14.0339 21.6781 13.8542 21.7134 13.5858 21.7315C13.3151 21.7499 12.9729 21.75 12.5 21.75V22.25ZM14.3739 22.079C14.9286 21.8509 15.3699 21.4133 15.6002 20.8617L15.1387 20.6691C14.9599 21.0976 14.6166 21.4386 14.1838 21.6165L14.3739 22.079ZM15.6002 20.8617C15.7113 20.5954 15.7489 20.2984 15.7635 19.9114L15.2638 19.8926C15.2498 20.2645 15.2143 20.488 15.1387 20.6691L15.6002 20.8617ZM15.7635 19.9114C15.7815 19.4328 16.0279 18.9987 16.4341 18.7659L16.1855 18.3321C15.6177 18.6575 15.2878 19.2558 15.2638 19.8926L15.7635 19.9114ZM16.4341 18.7659C16.8406 18.533 17.3441 18.5379 17.7725 18.7625L18.0047 18.3198C17.4387 18.0228 16.753 18.0069 16.1855 18.3321L16.4341 18.7659ZM17.7725 18.7625C18.1174 18.9434 18.3946 19.0592 18.6816 19.0967L18.7464 18.601C18.5497 18.5753 18.3364 18.4937 18.0047 18.3198L17.7725 18.7625ZM18.6816 19.0967C19.2767 19.1745 19.8787 19.0145 20.3553 18.6516L20.0524 18.2538C19.6809 18.5366 19.2111 18.6617 18.7464 18.601L18.6816 19.0967ZM20.3553 18.6516C20.5449 18.5072 20.7008 18.321 20.8652 18.0783C21.0282 17.8375 21.2092 17.5262 21.4422 17.1256L21.01 16.8742C20.7735 17.2807 20.6024 17.5746 20.4512 17.7979C20.3012 18.0193 20.1808 18.156 20.0524 18.2538L20.3553 18.6516ZM21.4422 17.1256C21.6752 16.7251 21.8564 16.4139 21.985 16.1534C22.1146 15.8908 22.1992 15.6634 22.2305 15.4278L21.7348 15.3621C21.7138 15.5209 21.6549 15.6925 21.5366 15.9321C21.4174 16.1737 21.2465 16.4677 21.01 16.8742L21.4422 17.1256ZM22.2305 15.4278C22.309 14.8356 22.1473 14.2369 21.7812 13.7635L21.3857 14.0693C21.6704 14.4375 21.7958 14.9025 21.7348 15.3621L22.2305 15.4278ZM21.7812 13.7635C21.6047 13.5351 21.3647 13.3546 21.0345 13.1487L20.77 13.5729C21.0877 13.7711 21.2652 13.9135 21.3857 14.0693L21.7812 13.7635ZM21.0345 13.1487C20.6245 12.893 20.3697 12.4637 20.3697 11.9999L19.8697 11.9999C19.8697 12.6523 20.2276 13.2348 20.77 13.5729L21.0345 13.1487ZM20.3697 11.9999C20.3697 11.5362 20.6245 11.107 21.0345 10.8513L20.77 10.4271C20.2277 10.7652 19.8697 11.3475 19.8697 11.9999L20.3697 11.9999ZM21.0345 10.8513C21.3648 10.6454 21.6047 10.4649 21.7813 10.2365L21.3858 9.93063C21.2653 10.0865 21.0877 10.2289 20.77 10.4271L21.0345 10.8513ZM21.7813 10.2365C22.1474 9.76303 22.3091 9.16432 22.2306 8.5721L21.7349 8.63785C21.7959 9.09742 21.6705 9.56242 21.3858 9.93063L21.7813 10.2365ZM22.2306 8.5721C22.1993 8.33649 22.1147 8.1091 21.9851 7.84657C21.8565 7.58605 21.6753 7.27483 21.4423 6.87429L21.0101 7.12571C21.2466 7.5322 21.4175 7.82626 21.5367 8.06786C21.655 8.30745 21.7139 8.47904 21.7349 8.63785L22.2306 8.5721ZM21.4423 6.87429C21.2093 6.47374 21.0283 6.1624 20.8653 5.92164C20.7009 5.67897 20.545 5.49275 20.3554 5.34837L20.0525 5.74616C20.1809 5.84397 20.3013 5.98059 20.4513 6.20199C20.6025 6.42529 20.7736 6.71923 21.0101 7.12571L21.4423 6.87429ZM20.3554 5.34837C19.8788 4.98542 19.2768 4.82544 18.6817 4.90319L18.7465 5.39898C19.2112 5.33826 19.681 5.4633 20.0525 5.74616L20.3554 5.34837ZM18.6817 4.90319C18.3947 4.9407 18.1174 5.05649 17.7725 5.23741L18.0048 5.68019C18.3365 5.50622 18.5498 5.42468 18.7465 5.39898L18.6817 4.90319ZM17.7725 5.23741C17.3442 5.46209 16.8407 5.46696 16.4342 5.23405L16.1856 5.66788C16.7531 5.99308 17.4388 5.9771 18.0048 5.68019L17.7725 5.23741ZM16.4342 5.23405C16.028 5.0013 15.7815 4.56718 15.7635 4.08852L15.2638 4.10735C15.2878 4.74415 15.6178 5.34251 16.1856 5.66788L16.4342 5.23405ZM15.7635 4.08852C15.7489 3.70152 15.7113 3.40463 15.6002 3.13834L15.1387 3.33092C15.2143 3.51203 15.2498 3.73543 15.2638 4.10735L15.7635 4.08852ZM15.6002 3.13834C15.3699 2.58673 14.9286 2.14906 14.3739 1.92102L14.1838 2.38347C14.6166 2.5614 14.9599 2.90243 15.1387 3.33092L15.6002 3.13834ZM15.2728 12C15.2728 13.517 14.0332 14.75 12.5 14.75V15.25C14.3057 15.25 15.7728 13.7967 15.7728 12H15.2728ZM12.5 14.75C10.9668 14.75 9.72716 13.517 9.72716 12H9.22716C9.22716 13.7967 10.6943 15.25 12.5 15.25V14.75ZM9.72716 12C9.72716 10.483 10.9668 9.25 12.5 9.25V8.75C10.6943 8.75 9.22716 10.2033 9.22716 12H9.72716ZM12.5 9.25C14.0332 9.25 15.2728 10.483 15.2728 12H15.7728C15.7728 10.2033 14.3057 8.75 12.5 8.75V9.25Z" fill="black"/>
</svg>
