<svg width="24" height="24" viewBox="0 0 24 24" fill="none" xmlns="http://www.w3.org/2000/svg">
<path fill-rule="evenodd" clip-rule="evenodd" d="M3.46447 20.5355C2 19.0711 2 16.714 2 12C2 7.28595 2 4.92893 3.46447 3.46447C4.92893 2 7.28595 2 12 2C16.714 2 19.0711 2 20.5355 3.46447C22 4.92893 22 7.28595 22 12C22 16.714 22 19.0711 20.5355 20.5355C19.0711 22 16.714 22 12 22C7.28595 22 4.92893 22 3.46447 20.5355ZM12 16.75C12.4142 16.75 12.75 16.4142 12.75 16V9.81066L14.4697 11.5303C14.7626 11.8232 15.2374 11.8232 15.5303 11.5303C15.8232 11.2374 15.8232 10.7626 15.5303 10.4697L12.5303 7.46967C12.3897 7.32902 12.1989 7.25 12 7.25C11.8011 7.25 11.6103 7.32902 11.4697 7.46967L8.46967 10.4697C8.17678 10.7626 8.17678 11.2374 8.46967 11.5303C8.76256 11.8232 9.23744 11.8232 9.53033 11.5303L11.25 9.81066V16C11.25 16.4142 11.5858 16.75 12 16.75Z" fill="#F4743B"/>
<path d="M12.75 9.81066L12.9268 9.63388L12.5 9.20711V9.81066H12.75ZM14.4697 11.5303L14.2929 11.7071L14.2929 11.7071L14.4697 11.5303ZM15.5303 11.5303L15.7071 11.7071L15.7071 11.7071L15.5303 11.5303ZM15.5303 10.4697L15.7071 10.2929L15.7071 10.2929L15.5303 10.4697ZM12.5303 7.46967L12.3536 7.64645L12.3536 7.64645L12.5303 7.46967ZM11.4697 7.46967L11.6464 7.64645L11.6464 7.64645L11.4697 7.46967ZM8.46967 10.4697L8.29289 10.2929L8.29289 10.2929L8.46967 10.4697ZM8.46967 11.5303L8.29289 11.7071L8.29289 11.7071L8.46967 11.5303ZM9.53033 11.5303L9.70711 11.7071L9.70711 11.7071L9.53033 11.5303ZM11.25 9.81066H11.5V9.20711L11.0732 9.63388L11.25 9.81066ZM12 1.75C9.65004 1.75 7.86243 1.74947 6.48033 1.93529C5.09104 2.12207 4.07411 2.50126 3.28769 3.28769L3.64124 3.64124C4.31928 2.9632 5.21311 2.61016 6.54695 2.43083C7.88799 2.25053 9.63591 2.25 12 2.25V1.75ZM2.25 12C2.25 9.63591 2.25053 7.88799 2.43083 6.54695C2.61016 5.21311 2.9632 4.31928 3.64124 3.64124L3.28769 3.28769C2.50126 4.07411 2.12207 5.09104 1.93529 6.48033C1.74947 7.86243 1.75 9.65004 1.75 12H2.25ZM22.25 12C22.25 9.65004 22.2505 7.86243 22.0647 6.48033C21.8779 5.09104 21.4987 4.07411 20.7123 3.28769L20.3588 3.64124C21.0368 4.31928 21.3898 5.21311 21.5692 6.54695C21.7495 7.88799 21.75 9.63591 21.75 12H22.25ZM12 2.25C14.3641 2.25 16.112 2.25053 17.453 2.43083C18.7869 2.61016 19.6807 2.9632 20.3588 3.64124L20.7123 3.28769C19.9259 2.50126 18.909 2.12207 17.5197 1.93529C16.1376 1.74947 14.35 1.75 12 1.75V2.25ZM12 22.25C14.35 22.25 16.1376 22.2505 17.5197 22.0647C18.909 21.8779 19.9259 21.4987 20.7123 20.7123L20.3588 20.3588C19.6807 21.0368 18.7869 21.3898 17.453 21.5692C16.112 21.7495 14.3641 21.75 12 21.75V22.25ZM21.75 12C21.75 14.3641 21.7495 16.112 21.5692 17.453C21.3898 18.7869 21.0368 19.6807 20.3588 20.3588L20.7123 20.7123C21.4987 19.9259 21.8779 18.909 22.0647 17.5197C22.2505 16.1376 22.25 14.35 22.25 12H21.75ZM12 21.75C9.63591 21.75 7.88799 21.7495 6.54695 21.5692C5.21311 21.3898 4.31928 21.0368 3.64124 20.3588L3.28769 20.7123C4.07411 21.4987 5.09104 21.8779 6.48033 22.0647C7.86243 22.2505 9.65004 22.25 12 22.25V21.75ZM1.75 12C1.75 14.35 1.74947 16.1376 1.93529 17.5197C2.12207 18.909 2.50126 19.9259 3.28769 20.7123L3.64124 20.3588C2.9632 19.6807 2.61016 18.7869 2.43083 17.453C2.25053 16.112 2.25 14.3641 2.25 12H1.75ZM12.5 16C12.5 16.2761 12.2761 16.5 12 16.5V17C12.5523 17 13 16.5523 13 16H12.5ZM12.5 9.81066V16H13V9.81066H12.5ZM14.6464 11.3536L12.9268 9.63388L12.5732 9.98744L14.2929 11.7071L14.6464 11.3536ZM15.3536 11.3536C15.1583 11.5488 14.8417 11.5488 14.6464 11.3536L14.2929 11.7071C14.6834 12.0976 15.3166 12.0976 15.7071 11.7071L15.3536 11.3536ZM15.3536 10.6464C15.5488 10.8417 15.5488 11.1583 15.3536 11.3536L15.7071 11.7071C16.0976 11.3166 16.0976 10.6834 15.7071 10.2929L15.3536 10.6464ZM12.3536 7.64645L15.3536 10.6464L15.7071 10.2929L12.7071 7.29289L12.3536 7.64645ZM12 7.5C12.1326 7.5 12.2598 7.55268 12.3536 7.64645L12.7071 7.29289C12.5196 7.10536 12.2652 7 12 7V7.5ZM11.6464 7.64645C11.7402 7.55268 11.8674 7.5 12 7.5V7C11.7348 7 11.4804 7.10536 11.2929 7.29289L11.6464 7.64645ZM8.64645 10.6464L11.6464 7.64645L11.2929 7.29289L8.29289 10.2929L8.64645 10.6464ZM8.64645 11.3536C8.45118 11.1583 8.45118 10.8417 8.64645 10.6464L8.29289 10.2929C7.90237 10.6834 7.90237 11.3166 8.29289 11.7071L8.64645 11.3536ZM9.35355 11.3536C9.15829 11.5488 8.84171 11.5488 8.64645 11.3536L8.29289 11.7071C8.68342 12.0976 9.31658 12.0976 9.70711 11.7071L9.35355 11.3536ZM11.0732 9.63388L9.35355 11.3536L9.70711 11.7071L11.4268 9.98744L11.0732 9.63388ZM11.5 16V9.81066H11V16H11.5ZM12 16.5C11.7239 16.5 11.5 16.2761 11.5 16H11C11 16.5523 11.4477 17 12 17V16.5Z" fill="black"/>
</svg>
