<svg width="24" height="24" viewBox="0 0 24 24" fill="none" xmlns="http://www.w3.org/2000/svg">
<path d="M12 1.25C9.92893 1.25 8.25 2.92893 8.25 5C8.25 6.81422 9.53832 8.32753 11.25 8.67499V11.25L7 11.25C5.48122 11.25 4.25 12.4812 4.25 14L4.25 15.325C2.53832 15.6725 1.25 17.1858 1.25 19C1.25 21.0711 2.92893 22.75 5 22.75C7.07107 22.75 8.75 21.0711 8.75 19C8.75 17.1858 7.46168 15.6725 5.75 15.325V14C5.75 13.3096 6.30964 12.75 7 12.75H17C17.6904 12.75 18.25 13.3096 18.25 14V15.325C16.5383 15.6725 15.25 17.1858 15.25 19C15.25 21.0711 16.9289 22.75 19 22.75C21.0711 22.75 22.75 21.0711 22.75 19C22.75 17.1858 21.4617 15.6725 19.75 15.325V14C19.75 12.4812 18.5188 11.25 17 11.25H12.75V8.67499C14.4617 8.32753 15.75 6.81422 15.75 5C15.75 2.92893 14.0711 1.25 12 1.25Z" fill="#F4743B" stroke="black" stroke-width="0.5"/>
</svg>
